<?xml version="1.0" encoding="utf-8" ?>
<!DOCTYPE svg PUBLIC "-//W3C//DTD SVG 1.1//EN" "http://www.w3.org/Graphics/SVG/1.1/DTD/svg11.dtd">
<svg height="492" version="1.1" width="642" xmlns="http://www.w3.org/2000/svg">
<ellipse cx="372" cy="22" fill="#000000" rx="8.0" ry="8.0" stroke="#000000" stroke-width="1"/>
<rect fill="#000000" height="7" stroke="#000000" stroke-width="1" width="80" x="332" y="78"/>
<polyline fill="none" points="372,30 372,78" stroke="#000000" stroke-width="1"/>
<line fill="#000000" stroke="#000000" stroke-width="1" x1="365" x2="372" y1="66" y2="78"/>
<line fill="#000000" stroke="#000000" stroke-width="1" x1="379" x2="372" y1="66" y2="78"/>
<rect fill="#00ff" height="50" rx="52" ry="52" stroke="#00ff" stroke-width="1" width="199" x="397" y="151"/>
<rect fill="#ffffff" height="52" rx="52" ry="52" stroke="#ffffff" stroke-width="1" width="201" x="396" y="150"/>
<rect fill="#ffffff" height="52" rx="52" ry="52" stroke="#000000" stroke-width="1" width="201" x="396" y="150"/>
<text font-family="Dialog" font-size="12" x="408" y="169">
Въвеждане на нов клиент </text>
<text font-family="Dialog" font-size="12" x="421" y="183">
и информация за него</text>
<polyline fill="none" points="412,85 412,151" stroke="#000000" stroke-width="1"/>
<line fill="#000000" stroke="#000000" stroke-width="1" x1="405" x2="412" y1="139" y2="151"/>
<line fill="#000000" stroke="#000000" stroke-width="1" x1="419" x2="412" y1="139" y2="151"/>
<rect fill="#00ff" height="50" rx="52" ry="52" stroke="#00ff" stroke-width="1" width="132" x="237" y="151"/>
<rect fill="#ffffff" height="52" rx="52" ry="52" stroke="#ffffff" stroke-width="1" width="134" x="236" y="150"/>
<rect fill="#ffffff" height="52" rx="52" ry="52" stroke="#000000" stroke-width="1" width="134" x="236" y="150"/>
<text font-family="Dialog" font-size="12" x="266" y="169">
Търсене на</text>
<text font-family="Dialog" font-size="12" x="248" y="183">
настоящ клиент</text>
<polyline fill="none" points="332,85 332,151" stroke="#000000" stroke-width="1"/>
<line fill="#000000" stroke="#000000" stroke-width="1" x1="325" x2="332" y1="139" y2="151"/>
<line fill="#000000" stroke="#000000" stroke-width="1" x1="339" x2="332" y1="139" y2="151"/>
<polygon fill="#ffffff" points="500,254 516,270 500,286 484,270" stroke="#ffffff" stroke-width="1"/>
<polygon fill="none" points="500,254 516,270 500,286 484,270" stroke="#000000" stroke-width="1"/>
<rect fill="none" height="15" stroke="#000000" stroke-width="1" width="123" x="412" y="369"/>
<text font-family="Dialog" font-size="12" x="413" y="382">
невалидни данни?</text>
<polyline fill="none" points="500,201 500,254" stroke="#000000" stroke-width="1"/>
<line fill="#000000" stroke="#000000" stroke-width="1" x1="493" x2="500" y1="242" y2="254"/>
<line fill="#000000" stroke="#000000" stroke-width="1" x1="507" x2="500" y1="242" y2="254"/>
<polygon fill="#ffffff" points="500,342 516,358 500,374 484,358" stroke="#ffffff" stroke-width="1"/>
<polygon fill="none" points="500,342 516,358 500,374 484,358" stroke="#000000" stroke-width="1"/>
<rect fill="none" height="15" stroke="#000000" stroke-width="1" width="114" x="508" y="246"/>
<text font-family="Dialog" font-size="12" x="509" y="259">
потвърждаване?</text>
<rect fill="#00ff" height="50" rx="52" ry="52" stroke="#00ff" stroke-width="1" width="112" x="189" y="335"/>
<rect fill="#ffffff" height="52" rx="52" ry="52" stroke="#ffffff" stroke-width="1" width="114" x="188" y="334"/>
<rect fill="#ffffff" height="52" rx="52" ry="52" stroke="#000000" stroke-width="1" width="114" x="188" y="334"/>
<text font-family="Dialog" font-size="12" x="200" y="353">
Записване на</text>
<text font-family="Dialog" font-size="12" x="214" y="367">
 данните</text>
<ellipse cx="248" cy="466" fill="#000000" rx="12.0" ry="12.0" stroke="#000000" stroke-width="1"/>
<ellipse cx="248" cy="466" fill="#ffffff" rx="11.0" ry="11.0" stroke="#ffffff" stroke-width="1"/>
<ellipse cx="247" cy="465" fill="#000000" rx="7.5" ry="7.5" stroke="#000000" stroke-width="1"/>
<polyline fill="none" points="247,385 247,454" stroke="#000000" stroke-width="1"/>
<line fill="#000000" stroke="#000000" stroke-width="1" x1="240" x2="247" y1="442" y2="454"/>
<line fill="#000000" stroke="#000000" stroke-width="1" x1="254" x2="247" y1="442" y2="454"/>
<polyline fill="none" points="500,286 500,342" stroke="#000000" stroke-width="1"/>
<line fill="#000000" stroke="#000000" stroke-width="1" x1="493" x2="500" y1="330" y2="342"/>
<line fill="#000000" stroke="#000000" stroke-width="1" x1="507" x2="500" y1="330" y2="342"/>
<text font-family="Dialog" font-size="12" x="509" y="319">
да</text>
<polyline fill="none" points="516,358 628,358 628,174 596,174" stroke="#000000" stroke-width="1"/>
<line fill="#000000" stroke="#000000" stroke-width="1" x1="608" x2="596" y1="167" y2="174"/>
<line fill="#000000" stroke="#000000" stroke-width="1" x1="608" x2="596" y1="181" y2="174"/>
<text font-family="Dialog" font-size="12" x="601" y="311">
да</text>
<polyline fill="none" points="516,270 572,270 572,462 259,465" stroke="#000000" stroke-width="1"/>
<line fill="#000000" stroke="#000000" stroke-width="1" x1="270" x2="259" y1="457" y2="465"/>
<line fill="#000000" stroke="#000000" stroke-width="1" x1="271" x2="259" y1="471" y2="465"/>
<text font-family="Dialog" font-size="12" x="532" y="457">
не</text>
<polyline fill="none" points="484,358 301,358" stroke="#000000" stroke-width="1"/>
<line fill="#000000" stroke="#000000" stroke-width="1" x1="313" x2="301" y1="351" y2="358"/>
<line fill="#000000" stroke="#000000" stroke-width="1" x1="313" x2="301" y1="365" y2="358"/>
<text font-family="Dialog" font-size="12" x="385" y="353">
не</text>
<polygon fill="#ffffff" points="36,246 52,262 36,278 20,262" stroke="#ffffff" stroke-width="1"/>
<polygon fill="none" points="36,246 52,262 36,278 20,262" stroke="#000000" stroke-width="1"/>
<rect fill="none" height="15" stroke="#000000" stroke-width="1" width="103" x="14" y="274"/>
<text font-family="Dialog" font-size="12" x="15" y="287">
празен списък?</text>
<polyline fill="none" points="36,246 36,174 237,174" stroke="#000000" stroke-width="1"/>
<line fill="#000000" stroke="#000000" stroke-width="1" x1="225" x2="237" y1="181" y2="174"/>
<line fill="#000000" stroke="#000000" stroke-width="1" x1="225" x2="237" y1="167" y2="174"/>
<text font-family="Dialog" font-size="12" x="27" y="170">
да</text>
<rect fill="#00ff" height="50" rx="52" ry="52" stroke="#00ff" stroke-width="1" width="110" x="117" y="239"/>
<rect fill="#ffffff" height="52" rx="52" ry="52" stroke="#ffffff" stroke-width="1" width="112" x="116" y="238"/>
<rect fill="#ffffff" height="52" rx="52" ry="52" stroke="#000000" stroke-width="1" width="112" x="116" y="238"/>
<text font-family="Dialog" font-size="12" x="128" y="257">
Избиране на </text>
<text font-family="Dialog" font-size="12" x="131" y="271">
потребител</text>
<polyline fill="none" points="52,262 117,262" stroke="#000000" stroke-width="1"/>
<line fill="#000000" stroke="#000000" stroke-width="1" x1="105" x2="117" y1="269" y2="262"/>
<line fill="#000000" stroke="#000000" stroke-width="1" x1="105" x2="117" y1="255" y2="262"/>
<text font-family="Dialog" font-size="12" x="76" y="257">
не</text>
<rect fill="#00ff" height="50" rx="52" ry="52" stroke="#00ff" stroke-width="1" width="123" x="269" y="239"/>
<rect fill="#ffffff" height="52" rx="52" ry="52" stroke="#ffffff" stroke-width="1" width="125" x="268" y="238"/>
<rect fill="#ffffff" height="52" rx="52" ry="52" stroke="#000000" stroke-width="1" width="125" x="268" y="238"/>
<text font-family="Dialog" font-size="12" x="290" y="257">
Промяна на </text>
<text font-family="Dialog" font-size="12" x="280" y="271">
информацията</text>
<polyline fill="none" points="227,262 269,262" stroke="#000000" stroke-width="1"/>
<line fill="#000000" stroke="#000000" stroke-width="1" x1="257" x2="269" y1="269" y2="262"/>
<line fill="#000000" stroke="#000000" stroke-width="1" x1="257" x2="269" y1="255" y2="262"/>
<polyline fill="none" points="392,270 484,270" stroke="#000000" stroke-width="1"/>
<line fill="#000000" stroke="#000000" stroke-width="1" x1="472" x2="484" y1="277" y2="270"/>
<line fill="#000000" stroke="#000000" stroke-width="1" x1="472" x2="484" y1="263" y2="270"/>
</svg>
