<?xml version="1.0" encoding="utf-8" ?>
<!DOCTYPE svg PUBLIC "-//W3C//DTD SVG 1.1//EN" "http://www.w3.org/Graphics/SVG/1.1/DTD/svg11.dtd">
<svg height="562" version="1.1" width="562" xmlns="http://www.w3.org/2000/svg">
<line fill="#000000" stroke="#000000" stroke-width="1" x1="89" x2="89" y1="63" y2="68"/>
<line fill="#000000" stroke="#000000" stroke-width="1" x1="89" x2="89" y1="73" y2="78"/>
<line fill="#000000" stroke="#000000" stroke-width="1" x1="89" x2="89" y1="83" y2="88"/>
<line fill="#000000" stroke="#000000" stroke-width="1" x1="89" x2="89" y1="93" y2="98"/>
<line fill="#000000" stroke="#000000" stroke-width="1" x1="89" x2="89" y1="103" y2="108"/>
<line fill="#000000" stroke="#000000" stroke-width="1" x1="89" x2="89" y1="113" y2="118"/>
<line fill="#000000" stroke="#000000" stroke-width="1" x1="89" x2="89" y1="123" y2="128"/>
<line fill="#000000" stroke="#000000" stroke-width="1" x1="89" x2="89" y1="133" y2="138"/>
<line fill="#000000" stroke="#000000" stroke-width="1" x1="89" x2="89" y1="143" y2="148"/>
<line fill="#000000" stroke="#000000" stroke-width="1" x1="89" x2="89" y1="153" y2="158"/>
<line fill="#000000" stroke="#000000" stroke-width="1" x1="89" x2="89" y1="163" y2="168"/>
<line fill="#000000" stroke="#000000" stroke-width="1" x1="89" x2="89" y1="173" y2="178"/>
<line fill="#000000" stroke="#000000" stroke-width="1" x1="89" x2="89" y1="183" y2="188"/>
<line fill="#000000" stroke="#000000" stroke-width="1" x1="89" x2="89" y1="193" y2="198"/>
<line fill="#000000" stroke="#000000" stroke-width="1" x1="89" x2="89" y1="203" y2="208"/>
<line fill="#000000" stroke="#000000" stroke-width="1" x1="89" x2="89" y1="213" y2="218"/>
<line fill="#000000" stroke="#000000" stroke-width="1" x1="89" x2="89" y1="223" y2="228"/>
<line fill="#000000" stroke="#000000" stroke-width="1" x1="89" x2="89" y1="233" y2="238"/>
<line fill="#000000" stroke="#000000" stroke-width="1" x1="89" x2="89" y1="243" y2="248"/>
<line fill="#000000" stroke="#000000" stroke-width="1" x1="89" x2="89" y1="253" y2="258"/>
<line fill="#000000" stroke="#000000" stroke-width="1" x1="89" x2="89" y1="263" y2="268"/>
<line fill="#000000" stroke="#000000" stroke-width="1" x1="89" x2="89" y1="273" y2="278"/>
<line fill="#000000" stroke="#000000" stroke-width="1" x1="89" x2="89" y1="283" y2="288"/>
<line fill="#000000" stroke="#000000" stroke-width="1" x1="89" x2="89" y1="293" y2="298"/>
<line fill="#000000" stroke="#000000" stroke-width="1" x1="89" x2="89" y1="303" y2="308"/>
<line fill="#000000" stroke="#000000" stroke-width="1" x1="89" x2="89" y1="313" y2="318"/>
<line fill="#000000" stroke="#000000" stroke-width="1" x1="89" x2="89" y1="323" y2="328"/>
<line fill="#000000" stroke="#000000" stroke-width="1" x1="89" x2="89" y1="333" y2="338"/>
<line fill="#000000" stroke="#000000" stroke-width="1" x1="89" x2="89" y1="343" y2="348"/>
<line fill="#000000" stroke="#000000" stroke-width="1" x1="89" x2="89" y1="353" y2="358"/>
<line fill="#000000" stroke="#000000" stroke-width="1" x1="89" x2="89" y1="363" y2="368"/>
<line fill="#000000" stroke="#000000" stroke-width="1" x1="89" x2="89" y1="373" y2="378"/>
<line fill="#000000" stroke="#000000" stroke-width="1" x1="89" x2="89" y1="383" y2="388"/>
<line fill="#000000" stroke="#000000" stroke-width="1" x1="89" x2="89" y1="393" y2="398"/>
<line fill="#000000" stroke="#000000" stroke-width="1" x1="89" x2="89" y1="403" y2="408"/>
<line fill="#000000" stroke="#000000" stroke-width="1" x1="89" x2="89" y1="413" y2="418"/>
<line fill="#000000" stroke="#000000" stroke-width="1" x1="89" x2="89" y1="423" y2="428"/>
<line fill="#000000" stroke="#000000" stroke-width="1" x1="89" x2="89" y1="433" y2="438"/>
<line fill="#000000" stroke="#000000" stroke-width="1" x1="89" x2="89" y1="443" y2="448"/>
<line fill="#000000" stroke="#000000" stroke-width="1" x1="89" x2="89" y1="453" y2="458"/>
<line fill="#000000" stroke="#000000" stroke-width="1" x1="89" x2="89" y1="463" y2="468"/>
<line fill="#000000" stroke="#000000" stroke-width="1" x1="89" x2="89" y1="473" y2="478"/>
<line fill="#000000" stroke="#000000" stroke-width="1" x1="89" x2="89" y1="483" y2="488"/>
<line fill="#000000" stroke="#000000" stroke-width="1" x1="89" x2="89" y1="493" y2="498"/>
<line fill="#000000" stroke="#000000" stroke-width="1" x1="89" x2="89" y1="503" y2="508"/>
<line fill="#000000" stroke="#000000" stroke-width="1" x1="89" x2="89" y1="513" y2="518"/>
<line fill="#000000" stroke="#000000" stroke-width="1" x1="89" x2="89" y1="523" y2="528"/>
<line fill="#000000" stroke="#000000" stroke-width="1" x1="89" x2="89" y1="533" y2="538"/>
<line fill="#000000" stroke="#000000" stroke-width="1" x1="89" x2="89" y1="543" y2="547"/>
<rect fill="#ffffff" height="484" stroke="#ffffff" stroke-width="1" width="20" x="79" y="63"/>
<rect fill="none" height="484" stroke="#000000" stroke-width="1" width="20" x="79" y="63"/>
<rect fill="#ffffff" height="50" stroke="#ffffff" stroke-width="1" width="150" x="14" y="14"/>
<rect fill="none" height="50" stroke="#000000" stroke-width="1" width="150" x="14" y="14"/>
<text font-family="Dialog" font-size="12" x="41" y="27">
/Потретбител</text>
<line fill="#000000" stroke="#000000" stroke-width="1" x1="473" x2="473" y1="63" y2="68"/>
<line fill="#000000" stroke="#000000" stroke-width="1" x1="473" x2="473" y1="73" y2="78"/>
<line fill="#000000" stroke="#000000" stroke-width="1" x1="473" x2="473" y1="83" y2="88"/>
<line fill="#000000" stroke="#000000" stroke-width="1" x1="473" x2="473" y1="93" y2="98"/>
<line fill="#000000" stroke="#000000" stroke-width="1" x1="473" x2="473" y1="103" y2="108"/>
<line fill="#000000" stroke="#000000" stroke-width="1" x1="473" x2="473" y1="113" y2="118"/>
<line fill="#000000" stroke="#000000" stroke-width="1" x1="473" x2="473" y1="123" y2="128"/>
<line fill="#000000" stroke="#000000" stroke-width="1" x1="473" x2="473" y1="133" y2="138"/>
<line fill="#000000" stroke="#000000" stroke-width="1" x1="473" x2="473" y1="143" y2="148"/>
<line fill="#000000" stroke="#000000" stroke-width="1" x1="473" x2="473" y1="153" y2="158"/>
<line fill="#000000" stroke="#000000" stroke-width="1" x1="473" x2="473" y1="163" y2="168"/>
<line fill="#000000" stroke="#000000" stroke-width="1" x1="473" x2="473" y1="173" y2="178"/>
<line fill="#000000" stroke="#000000" stroke-width="1" x1="473" x2="473" y1="183" y2="188"/>
<line fill="#000000" stroke="#000000" stroke-width="1" x1="473" x2="473" y1="193" y2="198"/>
<line fill="#000000" stroke="#000000" stroke-width="1" x1="473" x2="473" y1="203" y2="208"/>
<line fill="#000000" stroke="#000000" stroke-width="1" x1="473" x2="473" y1="213" y2="218"/>
<line fill="#000000" stroke="#000000" stroke-width="1" x1="473" x2="473" y1="223" y2="228"/>
<line fill="#000000" stroke="#000000" stroke-width="1" x1="473" x2="473" y1="233" y2="238"/>
<line fill="#000000" stroke="#000000" stroke-width="1" x1="473" x2="473" y1="243" y2="248"/>
<line fill="#000000" stroke="#000000" stroke-width="1" x1="473" x2="473" y1="253" y2="258"/>
<line fill="#000000" stroke="#000000" stroke-width="1" x1="473" x2="473" y1="263" y2="268"/>
<line fill="#000000" stroke="#000000" stroke-width="1" x1="473" x2="473" y1="273" y2="278"/>
<line fill="#000000" stroke="#000000" stroke-width="1" x1="473" x2="473" y1="283" y2="288"/>
<line fill="#000000" stroke="#000000" stroke-width="1" x1="473" x2="473" y1="293" y2="298"/>
<line fill="#000000" stroke="#000000" stroke-width="1" x1="473" x2="473" y1="303" y2="308"/>
<line fill="#000000" stroke="#000000" stroke-width="1" x1="473" x2="473" y1="313" y2="318"/>
<line fill="#000000" stroke="#000000" stroke-width="1" x1="473" x2="473" y1="323" y2="328"/>
<line fill="#000000" stroke="#000000" stroke-width="1" x1="473" x2="473" y1="333" y2="338"/>
<line fill="#000000" stroke="#000000" stroke-width="1" x1="473" x2="473" y1="343" y2="348"/>
<line fill="#000000" stroke="#000000" stroke-width="1" x1="473" x2="473" y1="353" y2="358"/>
<line fill="#000000" stroke="#000000" stroke-width="1" x1="473" x2="473" y1="363" y2="368"/>
<line fill="#000000" stroke="#000000" stroke-width="1" x1="473" x2="473" y1="373" y2="378"/>
<line fill="#000000" stroke="#000000" stroke-width="1" x1="473" x2="473" y1="383" y2="388"/>
<line fill="#000000" stroke="#000000" stroke-width="1" x1="473" x2="473" y1="393" y2="398"/>
<line fill="#000000" stroke="#000000" stroke-width="1" x1="473" x2="473" y1="403" y2="408"/>
<line fill="#000000" stroke="#000000" stroke-width="1" x1="473" x2="473" y1="413" y2="418"/>
<line fill="#000000" stroke="#000000" stroke-width="1" x1="473" x2="473" y1="423" y2="428"/>
<line fill="#000000" stroke="#000000" stroke-width="1" x1="473" x2="473" y1="433" y2="438"/>
<line fill="#000000" stroke="#000000" stroke-width="1" x1="473" x2="473" y1="443" y2="448"/>
<line fill="#000000" stroke="#000000" stroke-width="1" x1="473" x2="473" y1="453" y2="458"/>
<line fill="#000000" stroke="#000000" stroke-width="1" x1="473" x2="473" y1="463" y2="468"/>
<line fill="#000000" stroke="#000000" stroke-width="1" x1="473" x2="473" y1="473" y2="478"/>
<line fill="#000000" stroke="#000000" stroke-width="1" x1="473" x2="473" y1="483" y2="488"/>
<line fill="#000000" stroke="#000000" stroke-width="1" x1="473" x2="473" y1="493" y2="498"/>
<line fill="#000000" stroke="#000000" stroke-width="1" x1="473" x2="473" y1="503" y2="508"/>
<line fill="#000000" stroke="#000000" stroke-width="1" x1="473" x2="473" y1="513" y2="518"/>
<line fill="#000000" stroke="#000000" stroke-width="1" x1="473" x2="473" y1="523" y2="528"/>
<line fill="#000000" stroke="#000000" stroke-width="1" x1="473" x2="473" y1="533" y2="538"/>
<line fill="#000000" stroke="#000000" stroke-width="1" x1="473" x2="473" y1="543" y2="547"/>
<rect fill="#ffffff" height="484" stroke="#ffffff" stroke-width="1" width="20" x="463" y="63"/>
<rect fill="none" height="484" stroke="#000000" stroke-width="1" width="20" x="463" y="63"/>
<rect fill="#ffffff" height="50" stroke="#ffffff" stroke-width="1" width="150" x="398" y="14"/>
<rect fill="none" height="50" stroke="#000000" stroke-width="1" width="150" x="398" y="14"/>
<text font-family="Dialog" font-size="12" x="442" y="27">
/Система</text>
<rect fill="none" height="96" stroke="#000000" stroke-width="1" width="464" x="46" y="294"/>
<polyline fill="none" points="99,94 463,94" stroke="#000000" stroke-width="1"/>
<line fill="#000000" stroke="#000000" stroke-width="1" x1="451" x2="463" y1="101" y2="94"/>
<line fill="#000000" stroke="#000000" stroke-width="1" x1="451" x2="463" y1="87" y2="94"/>
<text font-family="Dialog" font-size="12" x="237" y="89">
новоУстройство()</text>
<polyline fill="none" points="99,150 463,150" stroke="#000000" stroke-width="1"/>
<line fill="#000000" stroke="#000000" stroke-width="1" x1="451" x2="463" y1="157" y2="150"/>
<line fill="#000000" stroke="#000000" stroke-width="1" x1="451" x2="463" y1="143" y2="150"/>
<text font-family="Dialog" font-size="12" x="237" y="145">
описание(текст)</text>
<line fill="#000000" stroke="#000000" stroke-width="1" x1="463" x2="458" y1="212" y2="212"/>
<line fill="#000000" stroke="#000000" stroke-width="1" x1="453" x2="448" y1="212" y2="212"/>
<line fill="#000000" stroke="#000000" stroke-width="1" x1="443" x2="438" y1="212" y2="212"/>
<line fill="#000000" stroke="#000000" stroke-width="1" x1="433" x2="428" y1="212" y2="212"/>
<line fill="#000000" stroke="#000000" stroke-width="1" x1="423" x2="418" y1="212" y2="212"/>
<line fill="#000000" stroke="#000000" stroke-width="1" x1="413" x2="408" y1="212" y2="212"/>
<line fill="#000000" stroke="#000000" stroke-width="1" x1="403" x2="398" y1="212" y2="212"/>
<line fill="#000000" stroke="#000000" stroke-width="1" x1="393" x2="388" y1="212" y2="212"/>
<line fill="#000000" stroke="#000000" stroke-width="1" x1="383" x2="378" y1="212" y2="212"/>
<line fill="#000000" stroke="#000000" stroke-width="1" x1="373" x2="368" y1="212" y2="212"/>
<line fill="#000000" stroke="#000000" stroke-width="1" x1="363" x2="358" y1="212" y2="212"/>
<line fill="#000000" stroke="#000000" stroke-width="1" x1="353" x2="348" y1="212" y2="212"/>
<line fill="#000000" stroke="#000000" stroke-width="1" x1="343" x2="338" y1="212" y2="212"/>
<line fill="#000000" stroke="#000000" stroke-width="1" x1="333" x2="328" y1="212" y2="212"/>
<line fill="#000000" stroke="#000000" stroke-width="1" x1="323" x2="318" y1="212" y2="212"/>
<line fill="#000000" stroke="#000000" stroke-width="1" x1="313" x2="308" y1="212" y2="212"/>
<line fill="#000000" stroke="#000000" stroke-width="1" x1="303" x2="298" y1="212" y2="212"/>
<line fill="#000000" stroke="#000000" stroke-width="1" x1="293" x2="288" y1="212" y2="212"/>
<line fill="#000000" stroke="#000000" stroke-width="1" x1="283" x2="278" y1="212" y2="212"/>
<line fill="#000000" stroke="#000000" stroke-width="1" x1="273" x2="268" y1="212" y2="212"/>
<line fill="#000000" stroke="#000000" stroke-width="1" x1="263" x2="258" y1="212" y2="212"/>
<line fill="#000000" stroke="#000000" stroke-width="1" x1="253" x2="248" y1="212" y2="212"/>
<line fill="#000000" stroke="#000000" stroke-width="1" x1="243" x2="238" y1="212" y2="212"/>
<line fill="#000000" stroke="#000000" stroke-width="1" x1="233" x2="228" y1="212" y2="212"/>
<line fill="#000000" stroke="#000000" stroke-width="1" x1="223" x2="218" y1="212" y2="212"/>
<line fill="#000000" stroke="#000000" stroke-width="1" x1="213" x2="208" y1="212" y2="212"/>
<line fill="#000000" stroke="#000000" stroke-width="1" x1="203" x2="198" y1="212" y2="212"/>
<line fill="#000000" stroke="#000000" stroke-width="1" x1="193" x2="188" y1="212" y2="212"/>
<line fill="#000000" stroke="#000000" stroke-width="1" x1="183" x2="178" y1="212" y2="212"/>
<line fill="#000000" stroke="#000000" stroke-width="1" x1="173" x2="168" y1="212" y2="212"/>
<line fill="#000000" stroke="#000000" stroke-width="1" x1="163" x2="158" y1="212" y2="212"/>
<line fill="#000000" stroke="#000000" stroke-width="1" x1="153" x2="148" y1="212" y2="212"/>
<line fill="#000000" stroke="#000000" stroke-width="1" x1="143" x2="138" y1="212" y2="212"/>
<line fill="#000000" stroke="#000000" stroke-width="1" x1="133" x2="128" y1="212" y2="212"/>
<line fill="#000000" stroke="#000000" stroke-width="1" x1="123" x2="118" y1="212" y2="212"/>
<line fill="#000000" stroke="#000000" stroke-width="1" x1="113" x2="108" y1="212" y2="212"/>
<line fill="#000000" stroke="#000000" stroke-width="1" x1="103" x2="99" y1="212" y2="212"/>
<line fill="#000000" stroke="#000000" stroke-width="1" x1="111" x2="99" y1="205" y2="212"/>
<line fill="#000000" stroke="#000000" stroke-width="1" x1="111" x2="99" y1="219" y2="212"/>
<text font-family="Dialog" font-size="12" x="237" y="207">
наличниФункции(списък)</text>
<polyline fill="none" points="99,246 463,246" stroke="#000000" stroke-width="1"/>
<line fill="#000000" stroke="#000000" stroke-width="1" x1="451" x2="463" y1="253" y2="246"/>
<line fill="#000000" stroke="#000000" stroke-width="1" x1="451" x2="463" y1="239" y2="246"/>
<text font-family="Dialog" font-size="12" x="237" y="241">
избраниФункции(списък)</text>
<rect fill="none" height="80" stroke="#000000" stroke-width="1" width="464" x="46" y="184"/>
<polyline fill="none" points="99,364 463,364" stroke="#000000" stroke-width="1"/>
<line fill="#000000" stroke="#000000" stroke-width="1" x1="451" x2="463" y1="371" y2="364"/>
<line fill="#000000" stroke="#000000" stroke-width="1" x1="451" x2="463" y1="357" y2="364"/>
<text font-family="Dialog" font-size="12" x="237" y="359">
избраниЧасти(списък)</text>
<line fill="#000000" stroke="#000000" stroke-width="1" x1="463" x2="458" y1="328" y2="328"/>
<line fill="#000000" stroke="#000000" stroke-width="1" x1="453" x2="448" y1="328" y2="328"/>
<line fill="#000000" stroke="#000000" stroke-width="1" x1="443" x2="438" y1="328" y2="328"/>
<line fill="#000000" stroke="#000000" stroke-width="1" x1="433" x2="428" y1="328" y2="328"/>
<line fill="#000000" stroke="#000000" stroke-width="1" x1="423" x2="418" y1="328" y2="328"/>
<line fill="#000000" stroke="#000000" stroke-width="1" x1="413" x2="408" y1="328" y2="328"/>
<line fill="#000000" stroke="#000000" stroke-width="1" x1="403" x2="398" y1="328" y2="328"/>
<line fill="#000000" stroke="#000000" stroke-width="1" x1="393" x2="388" y1="328" y2="328"/>
<line fill="#000000" stroke="#000000" stroke-width="1" x1="383" x2="378" y1="328" y2="328"/>
<line fill="#000000" stroke="#000000" stroke-width="1" x1="373" x2="368" y1="328" y2="328"/>
<line fill="#000000" stroke="#000000" stroke-width="1" x1="363" x2="358" y1="328" y2="328"/>
<line fill="#000000" stroke="#000000" stroke-width="1" x1="353" x2="348" y1="328" y2="328"/>
<line fill="#000000" stroke="#000000" stroke-width="1" x1="343" x2="338" y1="328" y2="328"/>
<line fill="#000000" stroke="#000000" stroke-width="1" x1="333" x2="328" y1="328" y2="328"/>
<line fill="#000000" stroke="#000000" stroke-width="1" x1="323" x2="318" y1="328" y2="328"/>
<line fill="#000000" stroke="#000000" stroke-width="1" x1="313" x2="308" y1="328" y2="328"/>
<line fill="#000000" stroke="#000000" stroke-width="1" x1="303" x2="298" y1="328" y2="328"/>
<line fill="#000000" stroke="#000000" stroke-width="1" x1="293" x2="288" y1="328" y2="328"/>
<line fill="#000000" stroke="#000000" stroke-width="1" x1="283" x2="278" y1="328" y2="328"/>
<line fill="#000000" stroke="#000000" stroke-width="1" x1="273" x2="268" y1="328" y2="328"/>
<line fill="#000000" stroke="#000000" stroke-width="1" x1="263" x2="258" y1="328" y2="328"/>
<line fill="#000000" stroke="#000000" stroke-width="1" x1="253" x2="248" y1="328" y2="328"/>
<line fill="#000000" stroke="#000000" stroke-width="1" x1="243" x2="238" y1="328" y2="328"/>
<line fill="#000000" stroke="#000000" stroke-width="1" x1="233" x2="228" y1="328" y2="328"/>
<line fill="#000000" stroke="#000000" stroke-width="1" x1="223" x2="218" y1="328" y2="328"/>
<line fill="#000000" stroke="#000000" stroke-width="1" x1="213" x2="208" y1="328" y2="328"/>
<line fill="#000000" stroke="#000000" stroke-width="1" x1="203" x2="198" y1="328" y2="328"/>
<line fill="#000000" stroke="#000000" stroke-width="1" x1="193" x2="188" y1="328" y2="328"/>
<line fill="#000000" stroke="#000000" stroke-width="1" x1="183" x2="178" y1="328" y2="328"/>
<line fill="#000000" stroke="#000000" stroke-width="1" x1="173" x2="168" y1="328" y2="328"/>
<line fill="#000000" stroke="#000000" stroke-width="1" x1="163" x2="158" y1="328" y2="328"/>
<line fill="#000000" stroke="#000000" stroke-width="1" x1="153" x2="148" y1="328" y2="328"/>
<line fill="#000000" stroke="#000000" stroke-width="1" x1="143" x2="138" y1="328" y2="328"/>
<line fill="#000000" stroke="#000000" stroke-width="1" x1="133" x2="128" y1="328" y2="328"/>
<line fill="#000000" stroke="#000000" stroke-width="1" x1="123" x2="118" y1="328" y2="328"/>
<line fill="#000000" stroke="#000000" stroke-width="1" x1="113" x2="108" y1="328" y2="328"/>
<line fill="#000000" stroke="#000000" stroke-width="1" x1="103" x2="99" y1="328" y2="328"/>
<line fill="#000000" stroke="#000000" stroke-width="1" x1="111" x2="99" y1="321" y2="328"/>
<line fill="#000000" stroke="#000000" stroke-width="1" x1="111" x2="99" y1="335" y2="328"/>
<text font-family="Dialog" font-size="12" x="237" y="323">
наличниЧасти(списък)</text>
<polyline fill="none" points="99,430 463,430" stroke="#000000" stroke-width="1"/>
<line fill="#000000" stroke="#000000" stroke-width="1" x1="451" x2="463" y1="437" y2="430"/>
<line fill="#000000" stroke="#000000" stroke-width="1" x1="451" x2="463" y1="423" y2="430"/>
<text font-family="Dialog" font-size="12" x="237" y="425">
СИМКарта(номер, оператор)</text>
<polyline fill="none" points="99,510 463,510" stroke="#000000" stroke-width="1"/>
<line fill="#000000" stroke="#000000" stroke-width="1" x1="451" x2="463" y1="517" y2="510"/>
<line fill="#000000" stroke="#000000" stroke-width="1" x1="451" x2="463" y1="503" y2="510"/>
<text font-family="Dialog" font-size="12" x="237" y="505">
записване()</text>
<line fill="#000000" stroke="#000000" stroke-width="1" x1="463" x2="458" y1="478" y2="478"/>
<line fill="#000000" stroke="#000000" stroke-width="1" x1="453" x2="448" y1="478" y2="478"/>
<line fill="#000000" stroke="#000000" stroke-width="1" x1="443" x2="438" y1="478" y2="478"/>
<line fill="#000000" stroke="#000000" stroke-width="1" x1="433" x2="428" y1="478" y2="478"/>
<line fill="#000000" stroke="#000000" stroke-width="1" x1="423" x2="418" y1="478" y2="478"/>
<line fill="#000000" stroke="#000000" stroke-width="1" x1="413" x2="408" y1="478" y2="478"/>
<line fill="#000000" stroke="#000000" stroke-width="1" x1="403" x2="398" y1="478" y2="478"/>
<line fill="#000000" stroke="#000000" stroke-width="1" x1="393" x2="388" y1="478" y2="478"/>
<line fill="#000000" stroke="#000000" stroke-width="1" x1="383" x2="378" y1="478" y2="478"/>
<line fill="#000000" stroke="#000000" stroke-width="1" x1="373" x2="368" y1="478" y2="478"/>
<line fill="#000000" stroke="#000000" stroke-width="1" x1="363" x2="358" y1="478" y2="478"/>
<line fill="#000000" stroke="#000000" stroke-width="1" x1="353" x2="348" y1="478" y2="478"/>
<line fill="#000000" stroke="#000000" stroke-width="1" x1="343" x2="338" y1="478" y2="478"/>
<line fill="#000000" stroke="#000000" stroke-width="1" x1="333" x2="328" y1="478" y2="478"/>
<line fill="#000000" stroke="#000000" stroke-width="1" x1="323" x2="318" y1="478" y2="478"/>
<line fill="#000000" stroke="#000000" stroke-width="1" x1="313" x2="308" y1="478" y2="478"/>
<line fill="#000000" stroke="#000000" stroke-width="1" x1="303" x2="298" y1="478" y2="478"/>
<line fill="#000000" stroke="#000000" stroke-width="1" x1="293" x2="288" y1="478" y2="478"/>
<line fill="#000000" stroke="#000000" stroke-width="1" x1="283" x2="278" y1="478" y2="478"/>
<line fill="#000000" stroke="#000000" stroke-width="1" x1="273" x2="268" y1="478" y2="478"/>
<line fill="#000000" stroke="#000000" stroke-width="1" x1="263" x2="258" y1="478" y2="478"/>
<line fill="#000000" stroke="#000000" stroke-width="1" x1="253" x2="248" y1="478" y2="478"/>
<line fill="#000000" stroke="#000000" stroke-width="1" x1="243" x2="238" y1="478" y2="478"/>
<line fill="#000000" stroke="#000000" stroke-width="1" x1="233" x2="228" y1="478" y2="478"/>
<line fill="#000000" stroke="#000000" stroke-width="1" x1="223" x2="218" y1="478" y2="478"/>
<line fill="#000000" stroke="#000000" stroke-width="1" x1="213" x2="208" y1="478" y2="478"/>
<line fill="#000000" stroke="#000000" stroke-width="1" x1="203" x2="198" y1="478" y2="478"/>
<line fill="#000000" stroke="#000000" stroke-width="1" x1="193" x2="188" y1="478" y2="478"/>
<line fill="#000000" stroke="#000000" stroke-width="1" x1="183" x2="178" y1="478" y2="478"/>
<line fill="#000000" stroke="#000000" stroke-width="1" x1="173" x2="168" y1="478" y2="478"/>
<line fill="#000000" stroke="#000000" stroke-width="1" x1="163" x2="158" y1="478" y2="478"/>
<line fill="#000000" stroke="#000000" stroke-width="1" x1="153" x2="148" y1="478" y2="478"/>
<line fill="#000000" stroke="#000000" stroke-width="1" x1="143" x2="138" y1="478" y2="478"/>
<line fill="#000000" stroke="#000000" stroke-width="1" x1="133" x2="128" y1="478" y2="478"/>
<line fill="#000000" stroke="#000000" stroke-width="1" x1="123" x2="118" y1="478" y2="478"/>
<line fill="#000000" stroke="#000000" stroke-width="1" x1="113" x2="108" y1="478" y2="478"/>
<line fill="#000000" stroke="#000000" stroke-width="1" x1="103" x2="99" y1="478" y2="478"/>
<line fill="#000000" stroke="#000000" stroke-width="1" x1="111" x2="99" y1="471" y2="478"/>
<line fill="#000000" stroke="#000000" stroke-width="1" x1="111" x2="99" y1="485" y2="478"/>
<text font-family="Dialog" font-size="12" x="237" y="473">
потвърждение()</text>
</svg>
