<?xml version="1.0" encoding="utf-8" ?>
<!DOCTYPE svg PUBLIC "-//W3C//DTD SVG 1.1//EN" "http://www.w3.org/Graphics/SVG/1.1/DTD/svg11.dtd">
<svg height="557" version="1.1" width="650" xmlns="http://www.w3.org/2000/svg">
<line fill="#000000" stroke="#000000" stroke-width="1" x1="89" x2="89" y1="63" y2="68"/>
<line fill="#000000" stroke="#000000" stroke-width="1" x1="89" x2="89" y1="73" y2="78"/>
<line fill="#000000" stroke="#000000" stroke-width="1" x1="89" x2="89" y1="83" y2="88"/>
<line fill="#000000" stroke="#000000" stroke-width="1" x1="89" x2="89" y1="93" y2="98"/>
<line fill="#000000" stroke="#000000" stroke-width="1" x1="89" x2="89" y1="103" y2="108"/>
<line fill="#000000" stroke="#000000" stroke-width="1" x1="89" x2="89" y1="113" y2="118"/>
<line fill="#000000" stroke="#000000" stroke-width="1" x1="89" x2="89" y1="123" y2="128"/>
<line fill="#000000" stroke="#000000" stroke-width="1" x1="89" x2="89" y1="133" y2="138"/>
<line fill="#000000" stroke="#000000" stroke-width="1" x1="89" x2="89" y1="143" y2="148"/>
<line fill="#000000" stroke="#000000" stroke-width="1" x1="89" x2="89" y1="153" y2="158"/>
<line fill="#000000" stroke="#000000" stroke-width="1" x1="89" x2="89" y1="163" y2="168"/>
<line fill="#000000" stroke="#000000" stroke-width="1" x1="89" x2="89" y1="173" y2="178"/>
<line fill="#000000" stroke="#000000" stroke-width="1" x1="89" x2="89" y1="183" y2="188"/>
<line fill="#000000" stroke="#000000" stroke-width="1" x1="89" x2="89" y1="193" y2="198"/>
<line fill="#000000" stroke="#000000" stroke-width="1" x1="89" x2="89" y1="203" y2="208"/>
<line fill="#000000" stroke="#000000" stroke-width="1" x1="89" x2="89" y1="213" y2="218"/>
<line fill="#000000" stroke="#000000" stroke-width="1" x1="89" x2="89" y1="223" y2="228"/>
<line fill="#000000" stroke="#000000" stroke-width="1" x1="89" x2="89" y1="233" y2="238"/>
<line fill="#000000" stroke="#000000" stroke-width="1" x1="89" x2="89" y1="243" y2="248"/>
<line fill="#000000" stroke="#000000" stroke-width="1" x1="89" x2="89" y1="253" y2="258"/>
<line fill="#000000" stroke="#000000" stroke-width="1" x1="89" x2="89" y1="263" y2="268"/>
<line fill="#000000" stroke="#000000" stroke-width="1" x1="89" x2="89" y1="273" y2="278"/>
<line fill="#000000" stroke="#000000" stroke-width="1" x1="89" x2="89" y1="283" y2="288"/>
<line fill="#000000" stroke="#000000" stroke-width="1" x1="89" x2="89" y1="293" y2="298"/>
<line fill="#000000" stroke="#000000" stroke-width="1" x1="89" x2="89" y1="303" y2="308"/>
<line fill="#000000" stroke="#000000" stroke-width="1" x1="89" x2="89" y1="313" y2="318"/>
<line fill="#000000" stroke="#000000" stroke-width="1" x1="89" x2="89" y1="323" y2="328"/>
<line fill="#000000" stroke="#000000" stroke-width="1" x1="89" x2="89" y1="333" y2="338"/>
<line fill="#000000" stroke="#000000" stroke-width="1" x1="89" x2="89" y1="343" y2="348"/>
<line fill="#000000" stroke="#000000" stroke-width="1" x1="89" x2="89" y1="353" y2="358"/>
<line fill="#000000" stroke="#000000" stroke-width="1" x1="89" x2="89" y1="363" y2="368"/>
<line fill="#000000" stroke="#000000" stroke-width="1" x1="89" x2="89" y1="373" y2="378"/>
<line fill="#000000" stroke="#000000" stroke-width="1" x1="89" x2="89" y1="383" y2="388"/>
<line fill="#000000" stroke="#000000" stroke-width="1" x1="89" x2="89" y1="393" y2="398"/>
<line fill="#000000" stroke="#000000" stroke-width="1" x1="89" x2="89" y1="403" y2="408"/>
<line fill="#000000" stroke="#000000" stroke-width="1" x1="89" x2="89" y1="413" y2="418"/>
<line fill="#000000" stroke="#000000" stroke-width="1" x1="89" x2="89" y1="423" y2="428"/>
<line fill="#000000" stroke="#000000" stroke-width="1" x1="89" x2="89" y1="433" y2="438"/>
<line fill="#000000" stroke="#000000" stroke-width="1" x1="89" x2="89" y1="443" y2="448"/>
<line fill="#000000" stroke="#000000" stroke-width="1" x1="89" x2="89" y1="453" y2="458"/>
<line fill="#000000" stroke="#000000" stroke-width="1" x1="89" x2="89" y1="463" y2="468"/>
<line fill="#000000" stroke="#000000" stroke-width="1" x1="89" x2="89" y1="473" y2="478"/>
<line fill="#000000" stroke="#000000" stroke-width="1" x1="89" x2="89" y1="483" y2="488"/>
<line fill="#000000" stroke="#000000" stroke-width="1" x1="89" x2="89" y1="493" y2="498"/>
<line fill="#000000" stroke="#000000" stroke-width="1" x1="89" x2="89" y1="503" y2="508"/>
<line fill="#000000" stroke="#000000" stroke-width="1" x1="89" x2="89" y1="513" y2="518"/>
<line fill="#000000" stroke="#000000" stroke-width="1" x1="89" x2="89" y1="523" y2="528"/>
<line fill="#000000" stroke="#000000" stroke-width="1" x1="89" x2="89" y1="533" y2="538"/>
<rect fill="#ffffff" height="479" stroke="#ffffff" stroke-width="1" width="20" x="79" y="63"/>
<rect fill="none" height="479" stroke="#000000" stroke-width="1" width="20" x="79" y="63"/>
<rect fill="#ffffff" height="50" stroke="#ffffff" stroke-width="1" width="150" x="14" y="14"/>
<rect fill="none" height="50" stroke="#000000" stroke-width="1" width="150" x="14" y="14"/>
<text font-family="Dialog" font-size="12" x="46" y="27">
/Потребител</text>
<line fill="#000000" stroke="#000000" stroke-width="1" x1="561" x2="561" y1="63" y2="68"/>
<line fill="#000000" stroke="#000000" stroke-width="1" x1="561" x2="561" y1="73" y2="78"/>
<line fill="#000000" stroke="#000000" stroke-width="1" x1="561" x2="561" y1="83" y2="88"/>
<line fill="#000000" stroke="#000000" stroke-width="1" x1="561" x2="561" y1="93" y2="98"/>
<line fill="#000000" stroke="#000000" stroke-width="1" x1="561" x2="561" y1="103" y2="108"/>
<line fill="#000000" stroke="#000000" stroke-width="1" x1="561" x2="561" y1="113" y2="118"/>
<line fill="#000000" stroke="#000000" stroke-width="1" x1="561" x2="561" y1="123" y2="128"/>
<line fill="#000000" stroke="#000000" stroke-width="1" x1="561" x2="561" y1="133" y2="138"/>
<line fill="#000000" stroke="#000000" stroke-width="1" x1="561" x2="561" y1="143" y2="148"/>
<line fill="#000000" stroke="#000000" stroke-width="1" x1="561" x2="561" y1="153" y2="158"/>
<line fill="#000000" stroke="#000000" stroke-width="1" x1="561" x2="561" y1="163" y2="168"/>
<line fill="#000000" stroke="#000000" stroke-width="1" x1="561" x2="561" y1="173" y2="178"/>
<line fill="#000000" stroke="#000000" stroke-width="1" x1="561" x2="561" y1="183" y2="188"/>
<line fill="#000000" stroke="#000000" stroke-width="1" x1="561" x2="561" y1="193" y2="198"/>
<line fill="#000000" stroke="#000000" stroke-width="1" x1="561" x2="561" y1="203" y2="208"/>
<line fill="#000000" stroke="#000000" stroke-width="1" x1="561" x2="561" y1="213" y2="218"/>
<line fill="#000000" stroke="#000000" stroke-width="1" x1="561" x2="561" y1="223" y2="228"/>
<line fill="#000000" stroke="#000000" stroke-width="1" x1="561" x2="561" y1="233" y2="238"/>
<line fill="#000000" stroke="#000000" stroke-width="1" x1="561" x2="561" y1="243" y2="248"/>
<line fill="#000000" stroke="#000000" stroke-width="1" x1="561" x2="561" y1="253" y2="258"/>
<line fill="#000000" stroke="#000000" stroke-width="1" x1="561" x2="561" y1="263" y2="268"/>
<line fill="#000000" stroke="#000000" stroke-width="1" x1="561" x2="561" y1="273" y2="278"/>
<line fill="#000000" stroke="#000000" stroke-width="1" x1="561" x2="561" y1="283" y2="288"/>
<line fill="#000000" stroke="#000000" stroke-width="1" x1="561" x2="561" y1="293" y2="298"/>
<line fill="#000000" stroke="#000000" stroke-width="1" x1="561" x2="561" y1="303" y2="308"/>
<line fill="#000000" stroke="#000000" stroke-width="1" x1="561" x2="561" y1="313" y2="318"/>
<line fill="#000000" stroke="#000000" stroke-width="1" x1="561" x2="561" y1="323" y2="328"/>
<line fill="#000000" stroke="#000000" stroke-width="1" x1="561" x2="561" y1="333" y2="338"/>
<line fill="#000000" stroke="#000000" stroke-width="1" x1="561" x2="561" y1="343" y2="348"/>
<line fill="#000000" stroke="#000000" stroke-width="1" x1="561" x2="561" y1="353" y2="358"/>
<line fill="#000000" stroke="#000000" stroke-width="1" x1="561" x2="561" y1="363" y2="368"/>
<line fill="#000000" stroke="#000000" stroke-width="1" x1="561" x2="561" y1="373" y2="378"/>
<line fill="#000000" stroke="#000000" stroke-width="1" x1="561" x2="561" y1="383" y2="388"/>
<line fill="#000000" stroke="#000000" stroke-width="1" x1="561" x2="561" y1="393" y2="398"/>
<line fill="#000000" stroke="#000000" stroke-width="1" x1="561" x2="561" y1="403" y2="408"/>
<line fill="#000000" stroke="#000000" stroke-width="1" x1="561" x2="561" y1="413" y2="418"/>
<line fill="#000000" stroke="#000000" stroke-width="1" x1="561" x2="561" y1="423" y2="428"/>
<line fill="#000000" stroke="#000000" stroke-width="1" x1="561" x2="561" y1="433" y2="438"/>
<line fill="#000000" stroke="#000000" stroke-width="1" x1="561" x2="561" y1="443" y2="448"/>
<line fill="#000000" stroke="#000000" stroke-width="1" x1="561" x2="561" y1="453" y2="458"/>
<line fill="#000000" stroke="#000000" stroke-width="1" x1="561" x2="561" y1="463" y2="468"/>
<line fill="#000000" stroke="#000000" stroke-width="1" x1="561" x2="561" y1="473" y2="478"/>
<line fill="#000000" stroke="#000000" stroke-width="1" x1="561" x2="561" y1="483" y2="488"/>
<line fill="#000000" stroke="#000000" stroke-width="1" x1="561" x2="561" y1="493" y2="498"/>
<line fill="#000000" stroke="#000000" stroke-width="1" x1="561" x2="561" y1="503" y2="508"/>
<line fill="#000000" stroke="#000000" stroke-width="1" x1="561" x2="561" y1="513" y2="518"/>
<line fill="#000000" stroke="#000000" stroke-width="1" x1="561" x2="561" y1="523" y2="528"/>
<line fill="#000000" stroke="#000000" stroke-width="1" x1="561" x2="561" y1="533" y2="538"/>
<rect fill="#ffffff" height="479" stroke="#ffffff" stroke-width="1" width="20" x="551" y="63"/>
<rect fill="none" height="479" stroke="#000000" stroke-width="1" width="20" x="551" y="63"/>
<rect fill="#ffffff" height="50" stroke="#ffffff" stroke-width="1" width="150" x="486" y="14"/>
<rect fill="none" height="50" stroke="#000000" stroke-width="1" width="150" x="486" y="14"/>
<text font-family="Dialog" font-size="12" x="530" y="27">
/Система</text>
<polyline fill="none" points="99,94 551,94" stroke="#000000" stroke-width="1"/>
<line fill="#000000" stroke="#000000" stroke-width="1" x1="539" x2="551" y1="101" y2="94"/>
<line fill="#000000" stroke="#000000" stroke-width="1" x1="539" x2="551" y1="87" y2="94"/>
<text font-family="Dialog" font-size="12" x="281" y="89">
търсенеКлиент()</text>
<line fill="#000000" stroke="#000000" stroke-width="1" x1="551" x2="546" y1="126" y2="126"/>
<line fill="#000000" stroke="#000000" stroke-width="1" x1="541" x2="536" y1="126" y2="126"/>
<line fill="#000000" stroke="#000000" stroke-width="1" x1="531" x2="526" y1="126" y2="126"/>
<line fill="#000000" stroke="#000000" stroke-width="1" x1="521" x2="516" y1="126" y2="126"/>
<line fill="#000000" stroke="#000000" stroke-width="1" x1="511" x2="506" y1="126" y2="126"/>
<line fill="#000000" stroke="#000000" stroke-width="1" x1="501" x2="496" y1="126" y2="126"/>
<line fill="#000000" stroke="#000000" stroke-width="1" x1="491" x2="486" y1="126" y2="126"/>
<line fill="#000000" stroke="#000000" stroke-width="1" x1="481" x2="476" y1="126" y2="126"/>
<line fill="#000000" stroke="#000000" stroke-width="1" x1="471" x2="466" y1="126" y2="126"/>
<line fill="#000000" stroke="#000000" stroke-width="1" x1="461" x2="456" y1="126" y2="126"/>
<line fill="#000000" stroke="#000000" stroke-width="1" x1="451" x2="446" y1="126" y2="126"/>
<line fill="#000000" stroke="#000000" stroke-width="1" x1="441" x2="436" y1="126" y2="126"/>
<line fill="#000000" stroke="#000000" stroke-width="1" x1="431" x2="426" y1="126" y2="126"/>
<line fill="#000000" stroke="#000000" stroke-width="1" x1="421" x2="416" y1="126" y2="126"/>
<line fill="#000000" stroke="#000000" stroke-width="1" x1="411" x2="406" y1="126" y2="126"/>
<line fill="#000000" stroke="#000000" stroke-width="1" x1="401" x2="396" y1="126" y2="126"/>
<line fill="#000000" stroke="#000000" stroke-width="1" x1="391" x2="386" y1="126" y2="126"/>
<line fill="#000000" stroke="#000000" stroke-width="1" x1="381" x2="376" y1="126" y2="126"/>
<line fill="#000000" stroke="#000000" stroke-width="1" x1="371" x2="366" y1="126" y2="126"/>
<line fill="#000000" stroke="#000000" stroke-width="1" x1="361" x2="356" y1="126" y2="126"/>
<line fill="#000000" stroke="#000000" stroke-width="1" x1="351" x2="346" y1="126" y2="126"/>
<line fill="#000000" stroke="#000000" stroke-width="1" x1="341" x2="336" y1="126" y2="126"/>
<line fill="#000000" stroke="#000000" stroke-width="1" x1="331" x2="326" y1="126" y2="126"/>
<line fill="#000000" stroke="#000000" stroke-width="1" x1="321" x2="316" y1="126" y2="126"/>
<line fill="#000000" stroke="#000000" stroke-width="1" x1="311" x2="306" y1="126" y2="126"/>
<line fill="#000000" stroke="#000000" stroke-width="1" x1="301" x2="296" y1="126" y2="126"/>
<line fill="#000000" stroke="#000000" stroke-width="1" x1="291" x2="286" y1="126" y2="126"/>
<line fill="#000000" stroke="#000000" stroke-width="1" x1="281" x2="276" y1="126" y2="126"/>
<line fill="#000000" stroke="#000000" stroke-width="1" x1="271" x2="266" y1="126" y2="126"/>
<line fill="#000000" stroke="#000000" stroke-width="1" x1="261" x2="256" y1="126" y2="126"/>
<line fill="#000000" stroke="#000000" stroke-width="1" x1="251" x2="246" y1="126" y2="126"/>
<line fill="#000000" stroke="#000000" stroke-width="1" x1="241" x2="236" y1="126" y2="126"/>
<line fill="#000000" stroke="#000000" stroke-width="1" x1="231" x2="226" y1="126" y2="126"/>
<line fill="#000000" stroke="#000000" stroke-width="1" x1="221" x2="216" y1="126" y2="126"/>
<line fill="#000000" stroke="#000000" stroke-width="1" x1="211" x2="206" y1="126" y2="126"/>
<line fill="#000000" stroke="#000000" stroke-width="1" x1="201" x2="196" y1="126" y2="126"/>
<line fill="#000000" stroke="#000000" stroke-width="1" x1="191" x2="186" y1="126" y2="126"/>
<line fill="#000000" stroke="#000000" stroke-width="1" x1="181" x2="176" y1="126" y2="126"/>
<line fill="#000000" stroke="#000000" stroke-width="1" x1="171" x2="166" y1="126" y2="126"/>
<line fill="#000000" stroke="#000000" stroke-width="1" x1="161" x2="156" y1="126" y2="126"/>
<line fill="#000000" stroke="#000000" stroke-width="1" x1="151" x2="146" y1="126" y2="126"/>
<line fill="#000000" stroke="#000000" stroke-width="1" x1="141" x2="136" y1="126" y2="126"/>
<line fill="#000000" stroke="#000000" stroke-width="1" x1="131" x2="126" y1="126" y2="126"/>
<line fill="#000000" stroke="#000000" stroke-width="1" x1="121" x2="116" y1="126" y2="126"/>
<line fill="#000000" stroke="#000000" stroke-width="1" x1="111" x2="106" y1="126" y2="126"/>
<line fill="#000000" stroke="#000000" stroke-width="1" x1="101" x2="99" y1="126" y2="126"/>
<line fill="#000000" stroke="#000000" stroke-width="1" x1="111" x2="99" y1="119" y2="126"/>
<line fill="#000000" stroke="#000000" stroke-width="1" x1="111" x2="99" y1="133" y2="126"/>
<text font-family="Dialog" font-size="12" x="281" y="121">
списъкКлиенти()</text>
<polyline fill="none" points="99,178 551,178" stroke="#000000" stroke-width="1"/>
<line fill="#000000" stroke="#000000" stroke-width="1" x1="539" x2="551" y1="185" y2="178"/>
<line fill="#000000" stroke="#000000" stroke-width="1" x1="539" x2="551" y1="171" y2="178"/>
<text font-family="Dialog" font-size="12" x="281" y="173">
изборДата (дата)</text>
<line fill="#000000" stroke="#000000" stroke-width="1" x1="551" x2="546" y1="199" y2="199"/>
<line fill="#000000" stroke="#000000" stroke-width="1" x1="541" x2="536" y1="199" y2="199"/>
<line fill="#000000" stroke="#000000" stroke-width="1" x1="531" x2="526" y1="199" y2="199"/>
<line fill="#000000" stroke="#000000" stroke-width="1" x1="521" x2="516" y1="199" y2="199"/>
<line fill="#000000" stroke="#000000" stroke-width="1" x1="511" x2="506" y1="199" y2="199"/>
<line fill="#000000" stroke="#000000" stroke-width="1" x1="501" x2="496" y1="199" y2="199"/>
<line fill="#000000" stroke="#000000" stroke-width="1" x1="491" x2="486" y1="199" y2="199"/>
<line fill="#000000" stroke="#000000" stroke-width="1" x1="481" x2="476" y1="199" y2="199"/>
<line fill="#000000" stroke="#000000" stroke-width="1" x1="471" x2="466" y1="199" y2="199"/>
<line fill="#000000" stroke="#000000" stroke-width="1" x1="461" x2="456" y1="199" y2="199"/>
<line fill="#000000" stroke="#000000" stroke-width="1" x1="451" x2="446" y1="199" y2="199"/>
<line fill="#000000" stroke="#000000" stroke-width="1" x1="441" x2="436" y1="199" y2="199"/>
<line fill="#000000" stroke="#000000" stroke-width="1" x1="431" x2="426" y1="199" y2="199"/>
<line fill="#000000" stroke="#000000" stroke-width="1" x1="421" x2="416" y1="199" y2="199"/>
<line fill="#000000" stroke="#000000" stroke-width="1" x1="411" x2="406" y1="199" y2="199"/>
<line fill="#000000" stroke="#000000" stroke-width="1" x1="401" x2="396" y1="199" y2="199"/>
<line fill="#000000" stroke="#000000" stroke-width="1" x1="391" x2="386" y1="199" y2="199"/>
<line fill="#000000" stroke="#000000" stroke-width="1" x1="381" x2="376" y1="199" y2="199"/>
<line fill="#000000" stroke="#000000" stroke-width="1" x1="371" x2="366" y1="199" y2="199"/>
<line fill="#000000" stroke="#000000" stroke-width="1" x1="361" x2="356" y1="199" y2="199"/>
<line fill="#000000" stroke="#000000" stroke-width="1" x1="351" x2="346" y1="199" y2="199"/>
<line fill="#000000" stroke="#000000" stroke-width="1" x1="341" x2="336" y1="199" y2="199"/>
<line fill="#000000" stroke="#000000" stroke-width="1" x1="331" x2="326" y1="199" y2="199"/>
<line fill="#000000" stroke="#000000" stroke-width="1" x1="321" x2="316" y1="199" y2="199"/>
<line fill="#000000" stroke="#000000" stroke-width="1" x1="311" x2="306" y1="199" y2="199"/>
<line fill="#000000" stroke="#000000" stroke-width="1" x1="301" x2="296" y1="199" y2="199"/>
<line fill="#000000" stroke="#000000" stroke-width="1" x1="291" x2="286" y1="199" y2="199"/>
<line fill="#000000" stroke="#000000" stroke-width="1" x1="281" x2="276" y1="199" y2="199"/>
<line fill="#000000" stroke="#000000" stroke-width="1" x1="271" x2="266" y1="199" y2="199"/>
<line fill="#000000" stroke="#000000" stroke-width="1" x1="261" x2="256" y1="199" y2="199"/>
<line fill="#000000" stroke="#000000" stroke-width="1" x1="251" x2="246" y1="199" y2="199"/>
<line fill="#000000" stroke="#000000" stroke-width="1" x1="241" x2="236" y1="199" y2="199"/>
<line fill="#000000" stroke="#000000" stroke-width="1" x1="231" x2="226" y1="199" y2="199"/>
<line fill="#000000" stroke="#000000" stroke-width="1" x1="221" x2="216" y1="199" y2="199"/>
<line fill="#000000" stroke="#000000" stroke-width="1" x1="211" x2="206" y1="199" y2="199"/>
<line fill="#000000" stroke="#000000" stroke-width="1" x1="201" x2="196" y1="199" y2="199"/>
<line fill="#000000" stroke="#000000" stroke-width="1" x1="191" x2="186" y1="199" y2="199"/>
<line fill="#000000" stroke="#000000" stroke-width="1" x1="181" x2="176" y1="199" y2="199"/>
<line fill="#000000" stroke="#000000" stroke-width="1" x1="171" x2="166" y1="199" y2="199"/>
<line fill="#000000" stroke="#000000" stroke-width="1" x1="161" x2="156" y1="199" y2="199"/>
<line fill="#000000" stroke="#000000" stroke-width="1" x1="151" x2="146" y1="199" y2="199"/>
<line fill="#000000" stroke="#000000" stroke-width="1" x1="141" x2="136" y1="199" y2="199"/>
<line fill="#000000" stroke="#000000" stroke-width="1" x1="131" x2="126" y1="199" y2="199"/>
<line fill="#000000" stroke="#000000" stroke-width="1" x1="121" x2="116" y1="199" y2="199"/>
<line fill="#000000" stroke="#000000" stroke-width="1" x1="111" x2="106" y1="199" y2="199"/>
<line fill="#000000" stroke="#000000" stroke-width="1" x1="101" x2="99" y1="199" y2="199"/>
<line fill="#000000" stroke="#000000" stroke-width="1" x1="111" x2="99" y1="192" y2="199"/>
<line fill="#000000" stroke="#000000" stroke-width="1" x1="111" x2="99" y1="206" y2="199"/>
<text font-family="Dialog" font-size="12" x="281" y="194">
наличниУстройства()</text>
<line fill="#000000" stroke="#000000" stroke-width="1" x1="551" x2="546" y1="253" y2="253"/>
<line fill="#000000" stroke="#000000" stroke-width="1" x1="541" x2="536" y1="253" y2="253"/>
<line fill="#000000" stroke="#000000" stroke-width="1" x1="531" x2="526" y1="253" y2="253"/>
<line fill="#000000" stroke="#000000" stroke-width="1" x1="521" x2="516" y1="253" y2="253"/>
<line fill="#000000" stroke="#000000" stroke-width="1" x1="511" x2="506" y1="253" y2="253"/>
<line fill="#000000" stroke="#000000" stroke-width="1" x1="501" x2="496" y1="253" y2="253"/>
<line fill="#000000" stroke="#000000" stroke-width="1" x1="491" x2="486" y1="253" y2="253"/>
<line fill="#000000" stroke="#000000" stroke-width="1" x1="481" x2="476" y1="253" y2="253"/>
<line fill="#000000" stroke="#000000" stroke-width="1" x1="471" x2="466" y1="253" y2="253"/>
<line fill="#000000" stroke="#000000" stroke-width="1" x1="461" x2="456" y1="253" y2="253"/>
<line fill="#000000" stroke="#000000" stroke-width="1" x1="451" x2="446" y1="253" y2="253"/>
<line fill="#000000" stroke="#000000" stroke-width="1" x1="441" x2="436" y1="253" y2="253"/>
<line fill="#000000" stroke="#000000" stroke-width="1" x1="431" x2="426" y1="253" y2="253"/>
<line fill="#000000" stroke="#000000" stroke-width="1" x1="421" x2="416" y1="253" y2="253"/>
<line fill="#000000" stroke="#000000" stroke-width="1" x1="411" x2="406" y1="253" y2="253"/>
<line fill="#000000" stroke="#000000" stroke-width="1" x1="401" x2="396" y1="253" y2="253"/>
<line fill="#000000" stroke="#000000" stroke-width="1" x1="391" x2="386" y1="253" y2="253"/>
<line fill="#000000" stroke="#000000" stroke-width="1" x1="381" x2="376" y1="253" y2="253"/>
<line fill="#000000" stroke="#000000" stroke-width="1" x1="371" x2="366" y1="253" y2="253"/>
<line fill="#000000" stroke="#000000" stroke-width="1" x1="361" x2="356" y1="253" y2="253"/>
<line fill="#000000" stroke="#000000" stroke-width="1" x1="351" x2="346" y1="253" y2="253"/>
<line fill="#000000" stroke="#000000" stroke-width="1" x1="341" x2="336" y1="253" y2="253"/>
<line fill="#000000" stroke="#000000" stroke-width="1" x1="331" x2="326" y1="253" y2="253"/>
<line fill="#000000" stroke="#000000" stroke-width="1" x1="321" x2="316" y1="253" y2="253"/>
<line fill="#000000" stroke="#000000" stroke-width="1" x1="311" x2="306" y1="253" y2="253"/>
<line fill="#000000" stroke="#000000" stroke-width="1" x1="301" x2="296" y1="253" y2="253"/>
<line fill="#000000" stroke="#000000" stroke-width="1" x1="291" x2="286" y1="253" y2="253"/>
<line fill="#000000" stroke="#000000" stroke-width="1" x1="281" x2="276" y1="253" y2="253"/>
<line fill="#000000" stroke="#000000" stroke-width="1" x1="271" x2="266" y1="253" y2="253"/>
<line fill="#000000" stroke="#000000" stroke-width="1" x1="261" x2="256" y1="253" y2="253"/>
<line fill="#000000" stroke="#000000" stroke-width="1" x1="251" x2="246" y1="253" y2="253"/>
<line fill="#000000" stroke="#000000" stroke-width="1" x1="241" x2="236" y1="253" y2="253"/>
<line fill="#000000" stroke="#000000" stroke-width="1" x1="231" x2="226" y1="253" y2="253"/>
<line fill="#000000" stroke="#000000" stroke-width="1" x1="221" x2="216" y1="253" y2="253"/>
<line fill="#000000" stroke="#000000" stroke-width="1" x1="211" x2="206" y1="253" y2="253"/>
<line fill="#000000" stroke="#000000" stroke-width="1" x1="201" x2="196" y1="253" y2="253"/>
<line fill="#000000" stroke="#000000" stroke-width="1" x1="191" x2="186" y1="253" y2="253"/>
<line fill="#000000" stroke="#000000" stroke-width="1" x1="181" x2="176" y1="253" y2="253"/>
<line fill="#000000" stroke="#000000" stroke-width="1" x1="171" x2="166" y1="253" y2="253"/>
<line fill="#000000" stroke="#000000" stroke-width="1" x1="161" x2="156" y1="253" y2="253"/>
<line fill="#000000" stroke="#000000" stroke-width="1" x1="151" x2="146" y1="253" y2="253"/>
<line fill="#000000" stroke="#000000" stroke-width="1" x1="141" x2="136" y1="253" y2="253"/>
<line fill="#000000" stroke="#000000" stroke-width="1" x1="131" x2="126" y1="253" y2="253"/>
<line fill="#000000" stroke="#000000" stroke-width="1" x1="121" x2="116" y1="253" y2="253"/>
<line fill="#000000" stroke="#000000" stroke-width="1" x1="111" x2="106" y1="253" y2="253"/>
<line fill="#000000" stroke="#000000" stroke-width="1" x1="101" x2="99" y1="253" y2="253"/>
<line fill="#000000" stroke="#000000" stroke-width="1" x1="111" x2="99" y1="246" y2="253"/>
<line fill="#000000" stroke="#000000" stroke-width="1" x1="111" x2="99" y1="260" y2="253"/>
<text font-family="Dialog" font-size="12" x="281" y="248">
обектиНаКлиента()</text>
<polyline fill="none" points="99,285 551,285" stroke="#000000" stroke-width="1"/>
<line fill="#000000" stroke="#000000" stroke-width="1" x1="539" x2="551" y1="292" y2="285"/>
<line fill="#000000" stroke="#000000" stroke-width="1" x1="539" x2="551" y1="278" y2="285"/>
<text font-family="Dialog" font-size="12" x="281" y="280">
новОбект()</text>
<rect fill="none" height="72" stroke="#000000" stroke-width="1" width="520" x="65" y="220"/>
<polyline fill="none" points="99,342 551,342" stroke="#000000" stroke-width="1"/>
<line fill="#000000" stroke="#000000" stroke-width="1" x1="539" x2="551" y1="349" y2="342"/>
<line fill="#000000" stroke="#000000" stroke-width="1" x1="539" x2="551" y1="335" y2="342"/>
<text font-family="Dialog" font-size="12" x="166" y="332">
добавиУстройствоОбект (устройство, обект)</text>
<polyline fill="none" points="99,371 551,371" stroke="#000000" stroke-width="1"/>
<line fill="#000000" stroke="#000000" stroke-width="1" x1="539" x2="551" y1="378" y2="371"/>
<line fill="#000000" stroke="#000000" stroke-width="1" x1="539" x2="551" y1="364" y2="371"/>
<text font-family="Dialog" font-size="12" x="277" y="366">
описаниеНаДоговор (текст)</text>
<line fill="#000000" stroke="#000000" stroke-width="1" x1="551" x2="546" y1="401" y2="401"/>
<line fill="#000000" stroke="#000000" stroke-width="1" x1="541" x2="536" y1="401" y2="401"/>
<line fill="#000000" stroke="#000000" stroke-width="1" x1="531" x2="526" y1="401" y2="401"/>
<line fill="#000000" stroke="#000000" stroke-width="1" x1="521" x2="516" y1="401" y2="401"/>
<line fill="#000000" stroke="#000000" stroke-width="1" x1="511" x2="506" y1="401" y2="401"/>
<line fill="#000000" stroke="#000000" stroke-width="1" x1="501" x2="496" y1="401" y2="401"/>
<line fill="#000000" stroke="#000000" stroke-width="1" x1="491" x2="486" y1="401" y2="401"/>
<line fill="#000000" stroke="#000000" stroke-width="1" x1="481" x2="476" y1="401" y2="401"/>
<line fill="#000000" stroke="#000000" stroke-width="1" x1="471" x2="466" y1="401" y2="401"/>
<line fill="#000000" stroke="#000000" stroke-width="1" x1="461" x2="456" y1="401" y2="401"/>
<line fill="#000000" stroke="#000000" stroke-width="1" x1="451" x2="446" y1="401" y2="401"/>
<line fill="#000000" stroke="#000000" stroke-width="1" x1="441" x2="436" y1="401" y2="401"/>
<line fill="#000000" stroke="#000000" stroke-width="1" x1="431" x2="426" y1="401" y2="401"/>
<line fill="#000000" stroke="#000000" stroke-width="1" x1="421" x2="416" y1="401" y2="401"/>
<line fill="#000000" stroke="#000000" stroke-width="1" x1="411" x2="406" y1="401" y2="401"/>
<line fill="#000000" stroke="#000000" stroke-width="1" x1="401" x2="396" y1="401" y2="401"/>
<line fill="#000000" stroke="#000000" stroke-width="1" x1="391" x2="386" y1="401" y2="401"/>
<line fill="#000000" stroke="#000000" stroke-width="1" x1="381" x2="376" y1="401" y2="401"/>
<line fill="#000000" stroke="#000000" stroke-width="1" x1="371" x2="366" y1="401" y2="401"/>
<line fill="#000000" stroke="#000000" stroke-width="1" x1="361" x2="356" y1="401" y2="401"/>
<line fill="#000000" stroke="#000000" stroke-width="1" x1="351" x2="346" y1="401" y2="401"/>
<line fill="#000000" stroke="#000000" stroke-width="1" x1="341" x2="336" y1="401" y2="401"/>
<line fill="#000000" stroke="#000000" stroke-width="1" x1="331" x2="326" y1="401" y2="401"/>
<line fill="#000000" stroke="#000000" stroke-width="1" x1="321" x2="316" y1="401" y2="401"/>
<line fill="#000000" stroke="#000000" stroke-width="1" x1="311" x2="306" y1="401" y2="401"/>
<line fill="#000000" stroke="#000000" stroke-width="1" x1="301" x2="296" y1="401" y2="401"/>
<line fill="#000000" stroke="#000000" stroke-width="1" x1="291" x2="286" y1="401" y2="401"/>
<line fill="#000000" stroke="#000000" stroke-width="1" x1="281" x2="276" y1="401" y2="401"/>
<line fill="#000000" stroke="#000000" stroke-width="1" x1="271" x2="266" y1="401" y2="401"/>
<line fill="#000000" stroke="#000000" stroke-width="1" x1="261" x2="256" y1="401" y2="401"/>
<line fill="#000000" stroke="#000000" stroke-width="1" x1="251" x2="246" y1="401" y2="401"/>
<line fill="#000000" stroke="#000000" stroke-width="1" x1="241" x2="236" y1="401" y2="401"/>
<line fill="#000000" stroke="#000000" stroke-width="1" x1="231" x2="226" y1="401" y2="401"/>
<line fill="#000000" stroke="#000000" stroke-width="1" x1="221" x2="216" y1="401" y2="401"/>
<line fill="#000000" stroke="#000000" stroke-width="1" x1="211" x2="206" y1="401" y2="401"/>
<line fill="#000000" stroke="#000000" stroke-width="1" x1="201" x2="196" y1="401" y2="401"/>
<line fill="#000000" stroke="#000000" stroke-width="1" x1="191" x2="186" y1="401" y2="401"/>
<line fill="#000000" stroke="#000000" stroke-width="1" x1="181" x2="176" y1="401" y2="401"/>
<line fill="#000000" stroke="#000000" stroke-width="1" x1="171" x2="166" y1="401" y2="401"/>
<line fill="#000000" stroke="#000000" stroke-width="1" x1="161" x2="156" y1="401" y2="401"/>
<line fill="#000000" stroke="#000000" stroke-width="1" x1="151" x2="146" y1="401" y2="401"/>
<line fill="#000000" stroke="#000000" stroke-width="1" x1="141" x2="136" y1="401" y2="401"/>
<line fill="#000000" stroke="#000000" stroke-width="1" x1="131" x2="126" y1="401" y2="401"/>
<line fill="#000000" stroke="#000000" stroke-width="1" x1="121" x2="116" y1="401" y2="401"/>
<line fill="#000000" stroke="#000000" stroke-width="1" x1="111" x2="106" y1="401" y2="401"/>
<line fill="#000000" stroke="#000000" stroke-width="1" x1="101" x2="99" y1="401" y2="401"/>
<line fill="#000000" stroke="#000000" stroke-width="1" x1="111" x2="99" y1="394" y2="401"/>
<line fill="#000000" stroke="#000000" stroke-width="1" x1="111" x2="99" y1="408" y2="401"/>
<text font-family="Dialog" font-size="12" x="281" y="396">
примеренДоговор()</text>
<line fill="#000000" stroke="#000000" stroke-width="1" x1="551" x2="546" y1="446" y2="446"/>
<line fill="#000000" stroke="#000000" stroke-width="1" x1="541" x2="536" y1="446" y2="446"/>
<line fill="#000000" stroke="#000000" stroke-width="1" x1="531" x2="526" y1="446" y2="446"/>
<line fill="#000000" stroke="#000000" stroke-width="1" x1="521" x2="516" y1="446" y2="446"/>
<line fill="#000000" stroke="#000000" stroke-width="1" x1="511" x2="506" y1="446" y2="446"/>
<line fill="#000000" stroke="#000000" stroke-width="1" x1="501" x2="496" y1="446" y2="446"/>
<line fill="#000000" stroke="#000000" stroke-width="1" x1="491" x2="486" y1="446" y2="446"/>
<line fill="#000000" stroke="#000000" stroke-width="1" x1="481" x2="476" y1="446" y2="446"/>
<line fill="#000000" stroke="#000000" stroke-width="1" x1="471" x2="466" y1="446" y2="446"/>
<line fill="#000000" stroke="#000000" stroke-width="1" x1="461" x2="456" y1="446" y2="446"/>
<line fill="#000000" stroke="#000000" stroke-width="1" x1="451" x2="446" y1="446" y2="446"/>
<line fill="#000000" stroke="#000000" stroke-width="1" x1="441" x2="436" y1="446" y2="446"/>
<line fill="#000000" stroke="#000000" stroke-width="1" x1="431" x2="426" y1="446" y2="446"/>
<line fill="#000000" stroke="#000000" stroke-width="1" x1="421" x2="416" y1="446" y2="446"/>
<line fill="#000000" stroke="#000000" stroke-width="1" x1="411" x2="406" y1="446" y2="446"/>
<line fill="#000000" stroke="#000000" stroke-width="1" x1="401" x2="396" y1="446" y2="446"/>
<line fill="#000000" stroke="#000000" stroke-width="1" x1="391" x2="386" y1="446" y2="446"/>
<line fill="#000000" stroke="#000000" stroke-width="1" x1="381" x2="376" y1="446" y2="446"/>
<line fill="#000000" stroke="#000000" stroke-width="1" x1="371" x2="366" y1="446" y2="446"/>
<line fill="#000000" stroke="#000000" stroke-width="1" x1="361" x2="356" y1="446" y2="446"/>
<line fill="#000000" stroke="#000000" stroke-width="1" x1="351" x2="346" y1="446" y2="446"/>
<line fill="#000000" stroke="#000000" stroke-width="1" x1="341" x2="336" y1="446" y2="446"/>
<line fill="#000000" stroke="#000000" stroke-width="1" x1="331" x2="326" y1="446" y2="446"/>
<line fill="#000000" stroke="#000000" stroke-width="1" x1="321" x2="316" y1="446" y2="446"/>
<line fill="#000000" stroke="#000000" stroke-width="1" x1="311" x2="306" y1="446" y2="446"/>
<line fill="#000000" stroke="#000000" stroke-width="1" x1="301" x2="296" y1="446" y2="446"/>
<line fill="#000000" stroke="#000000" stroke-width="1" x1="291" x2="286" y1="446" y2="446"/>
<line fill="#000000" stroke="#000000" stroke-width="1" x1="281" x2="276" y1="446" y2="446"/>
<line fill="#000000" stroke="#000000" stroke-width="1" x1="271" x2="266" y1="446" y2="446"/>
<line fill="#000000" stroke="#000000" stroke-width="1" x1="261" x2="256" y1="446" y2="446"/>
<line fill="#000000" stroke="#000000" stroke-width="1" x1="251" x2="246" y1="446" y2="446"/>
<line fill="#000000" stroke="#000000" stroke-width="1" x1="241" x2="236" y1="446" y2="446"/>
<line fill="#000000" stroke="#000000" stroke-width="1" x1="231" x2="226" y1="446" y2="446"/>
<line fill="#000000" stroke="#000000" stroke-width="1" x1="221" x2="216" y1="446" y2="446"/>
<line fill="#000000" stroke="#000000" stroke-width="1" x1="211" x2="206" y1="446" y2="446"/>
<line fill="#000000" stroke="#000000" stroke-width="1" x1="201" x2="196" y1="446" y2="446"/>
<line fill="#000000" stroke="#000000" stroke-width="1" x1="191" x2="186" y1="446" y2="446"/>
<line fill="#000000" stroke="#000000" stroke-width="1" x1="181" x2="176" y1="446" y2="446"/>
<line fill="#000000" stroke="#000000" stroke-width="1" x1="171" x2="166" y1="446" y2="446"/>
<line fill="#000000" stroke="#000000" stroke-width="1" x1="161" x2="156" y1="446" y2="446"/>
<line fill="#000000" stroke="#000000" stroke-width="1" x1="151" x2="146" y1="446" y2="446"/>
<line fill="#000000" stroke="#000000" stroke-width="1" x1="141" x2="136" y1="446" y2="446"/>
<line fill="#000000" stroke="#000000" stroke-width="1" x1="131" x2="126" y1="446" y2="446"/>
<line fill="#000000" stroke="#000000" stroke-width="1" x1="121" x2="116" y1="446" y2="446"/>
<line fill="#000000" stroke="#000000" stroke-width="1" x1="111" x2="106" y1="446" y2="446"/>
<line fill="#000000" stroke="#000000" stroke-width="1" x1="101" x2="99" y1="446" y2="446"/>
<line fill="#000000" stroke="#000000" stroke-width="1" x1="111" x2="99" y1="439" y2="446"/>
<line fill="#000000" stroke="#000000" stroke-width="1" x1="111" x2="99" y1="453" y2="446"/>
<text font-family="Dialog" font-size="12" x="281" y="441">
потвърждение()</text>
<rect fill="none" height="248" stroke="#000000" stroke-width="1" width="542" x="54" y="214"/>
<polyline fill="none" points="99,490 551,490" stroke="#000000" stroke-width="1"/>
<line fill="#000000" stroke="#000000" stroke-width="1" x1="539" x2="551" y1="497" y2="490"/>
<line fill="#000000" stroke="#000000" stroke-width="1" x1="539" x2="551" y1="483" y2="490"/>
<text font-family="Dialog" font-size="12" x="281" y="485">
записване()</text>
<polyline fill="none" points="99,158 551,158" stroke="#000000" stroke-width="1"/>
<line fill="#000000" stroke="#000000" stroke-width="1" x1="539" x2="551" y1="165" y2="158"/>
<line fill="#000000" stroke="#000000" stroke-width="1" x1="539" x2="551" y1="151" y2="158"/>
<text font-family="Dialog" font-size="12" x="277" y="153">
изборКлиент (клиент)</text>
<polyline fill="none" points="99,422 551,422" stroke="#000000" stroke-width="1"/>
<line fill="#000000" stroke="#000000" stroke-width="1" x1="539" x2="551" y1="429" y2="422"/>
<line fill="#000000" stroke="#000000" stroke-width="1" x1="539" x2="551" y1="415" y2="422"/>
<text font-family="Dialog" font-size="12" x="277" y="417">
краенВариант (договор)</text>
<line fill="#000000" stroke="#000000" stroke-width="1" x1="551" x2="546" y1="518" y2="518"/>
<line fill="#000000" stroke="#000000" stroke-width="1" x1="541" x2="536" y1="518" y2="518"/>
<line fill="#000000" stroke="#000000" stroke-width="1" x1="531" x2="526" y1="518" y2="518"/>
<line fill="#000000" stroke="#000000" stroke-width="1" x1="521" x2="516" y1="518" y2="518"/>
<line fill="#000000" stroke="#000000" stroke-width="1" x1="511" x2="506" y1="518" y2="518"/>
<line fill="#000000" stroke="#000000" stroke-width="1" x1="501" x2="496" y1="518" y2="518"/>
<line fill="#000000" stroke="#000000" stroke-width="1" x1="491" x2="486" y1="518" y2="518"/>
<line fill="#000000" stroke="#000000" stroke-width="1" x1="481" x2="476" y1="518" y2="518"/>
<line fill="#000000" stroke="#000000" stroke-width="1" x1="471" x2="466" y1="518" y2="518"/>
<line fill="#000000" stroke="#000000" stroke-width="1" x1="461" x2="456" y1="518" y2="518"/>
<line fill="#000000" stroke="#000000" stroke-width="1" x1="451" x2="446" y1="518" y2="518"/>
<line fill="#000000" stroke="#000000" stroke-width="1" x1="441" x2="436" y1="518" y2="518"/>
<line fill="#000000" stroke="#000000" stroke-width="1" x1="431" x2="426" y1="518" y2="518"/>
<line fill="#000000" stroke="#000000" stroke-width="1" x1="421" x2="416" y1="518" y2="518"/>
<line fill="#000000" stroke="#000000" stroke-width="1" x1="411" x2="406" y1="518" y2="518"/>
<line fill="#000000" stroke="#000000" stroke-width="1" x1="401" x2="396" y1="518" y2="518"/>
<line fill="#000000" stroke="#000000" stroke-width="1" x1="391" x2="386" y1="518" y2="518"/>
<line fill="#000000" stroke="#000000" stroke-width="1" x1="381" x2="376" y1="518" y2="518"/>
<line fill="#000000" stroke="#000000" stroke-width="1" x1="371" x2="366" y1="518" y2="518"/>
<line fill="#000000" stroke="#000000" stroke-width="1" x1="361" x2="356" y1="518" y2="518"/>
<line fill="#000000" stroke="#000000" stroke-width="1" x1="351" x2="346" y1="518" y2="518"/>
<line fill="#000000" stroke="#000000" stroke-width="1" x1="341" x2="336" y1="518" y2="518"/>
<line fill="#000000" stroke="#000000" stroke-width="1" x1="331" x2="326" y1="518" y2="518"/>
<line fill="#000000" stroke="#000000" stroke-width="1" x1="321" x2="316" y1="518" y2="518"/>
<line fill="#000000" stroke="#000000" stroke-width="1" x1="311" x2="306" y1="518" y2="518"/>
<line fill="#000000" stroke="#000000" stroke-width="1" x1="301" x2="296" y1="518" y2="518"/>
<line fill="#000000" stroke="#000000" stroke-width="1" x1="291" x2="286" y1="518" y2="518"/>
<line fill="#000000" stroke="#000000" stroke-width="1" x1="281" x2="276" y1="518" y2="518"/>
<line fill="#000000" stroke="#000000" stroke-width="1" x1="271" x2="266" y1="518" y2="518"/>
<line fill="#000000" stroke="#000000" stroke-width="1" x1="261" x2="256" y1="518" y2="518"/>
<line fill="#000000" stroke="#000000" stroke-width="1" x1="251" x2="246" y1="518" y2="518"/>
<line fill="#000000" stroke="#000000" stroke-width="1" x1="241" x2="236" y1="518" y2="518"/>
<line fill="#000000" stroke="#000000" stroke-width="1" x1="231" x2="226" y1="518" y2="518"/>
<line fill="#000000" stroke="#000000" stroke-width="1" x1="221" x2="216" y1="518" y2="518"/>
<line fill="#000000" stroke="#000000" stroke-width="1" x1="211" x2="206" y1="518" y2="518"/>
<line fill="#000000" stroke="#000000" stroke-width="1" x1="201" x2="196" y1="518" y2="518"/>
<line fill="#000000" stroke="#000000" stroke-width="1" x1="191" x2="186" y1="518" y2="518"/>
<line fill="#000000" stroke="#000000" stroke-width="1" x1="181" x2="176" y1="518" y2="518"/>
<line fill="#000000" stroke="#000000" stroke-width="1" x1="171" x2="166" y1="518" y2="518"/>
<line fill="#000000" stroke="#000000" stroke-width="1" x1="161" x2="156" y1="518" y2="518"/>
<line fill="#000000" stroke="#000000" stroke-width="1" x1="151" x2="146" y1="518" y2="518"/>
<line fill="#000000" stroke="#000000" stroke-width="1" x1="141" x2="136" y1="518" y2="518"/>
<line fill="#000000" stroke="#000000" stroke-width="1" x1="131" x2="126" y1="518" y2="518"/>
<line fill="#000000" stroke="#000000" stroke-width="1" x1="121" x2="116" y1="518" y2="518"/>
<line fill="#000000" stroke="#000000" stroke-width="1" x1="111" x2="106" y1="518" y2="518"/>
<line fill="#000000" stroke="#000000" stroke-width="1" x1="101" x2="99" y1="518" y2="518"/>
<line fill="#000000" stroke="#000000" stroke-width="1" x1="111" x2="99" y1="511" y2="518"/>
<line fill="#000000" stroke="#000000" stroke-width="1" x1="111" x2="99" y1="525" y2="518"/>
<text font-family="Dialog" font-size="12" x="281" y="513">
потвърждение()</text>
</svg>
