<?xml version="1.0" encoding="utf-8" ?>
<!DOCTYPE svg PUBLIC "-//W3C//DTD SVG 1.1//EN" "http://www.w3.org/Graphics/SVG/1.1/DTD/svg11.dtd">
<svg height="434" version="1.1" width="562" xmlns="http://www.w3.org/2000/svg">
<line fill="#000000" stroke="#000000" stroke-width="1" x1="94" x2="94" y1="63" y2="68"/>
<line fill="#000000" stroke="#000000" stroke-width="1" x1="94" x2="94" y1="73" y2="78"/>
<line fill="#000000" stroke="#000000" stroke-width="1" x1="94" x2="94" y1="83" y2="88"/>
<line fill="#000000" stroke="#000000" stroke-width="1" x1="94" x2="94" y1="93" y2="98"/>
<line fill="#000000" stroke="#000000" stroke-width="1" x1="94" x2="94" y1="103" y2="108"/>
<line fill="#000000" stroke="#000000" stroke-width="1" x1="94" x2="94" y1="113" y2="118"/>
<line fill="#000000" stroke="#000000" stroke-width="1" x1="94" x2="94" y1="123" y2="128"/>
<line fill="#000000" stroke="#000000" stroke-width="1" x1="94" x2="94" y1="133" y2="138"/>
<line fill="#000000" stroke="#000000" stroke-width="1" x1="94" x2="94" y1="143" y2="148"/>
<line fill="#000000" stroke="#000000" stroke-width="1" x1="94" x2="94" y1="153" y2="158"/>
<line fill="#000000" stroke="#000000" stroke-width="1" x1="94" x2="94" y1="163" y2="168"/>
<line fill="#000000" stroke="#000000" stroke-width="1" x1="94" x2="94" y1="173" y2="178"/>
<line fill="#000000" stroke="#000000" stroke-width="1" x1="94" x2="94" y1="183" y2="188"/>
<line fill="#000000" stroke="#000000" stroke-width="1" x1="94" x2="94" y1="193" y2="198"/>
<line fill="#000000" stroke="#000000" stroke-width="1" x1="94" x2="94" y1="203" y2="208"/>
<line fill="#000000" stroke="#000000" stroke-width="1" x1="94" x2="94" y1="213" y2="218"/>
<line fill="#000000" stroke="#000000" stroke-width="1" x1="94" x2="94" y1="223" y2="228"/>
<line fill="#000000" stroke="#000000" stroke-width="1" x1="94" x2="94" y1="233" y2="238"/>
<line fill="#000000" stroke="#000000" stroke-width="1" x1="94" x2="94" y1="243" y2="248"/>
<line fill="#000000" stroke="#000000" stroke-width="1" x1="94" x2="94" y1="253" y2="258"/>
<line fill="#000000" stroke="#000000" stroke-width="1" x1="94" x2="94" y1="263" y2="268"/>
<line fill="#000000" stroke="#000000" stroke-width="1" x1="94" x2="94" y1="273" y2="278"/>
<line fill="#000000" stroke="#000000" stroke-width="1" x1="94" x2="94" y1="283" y2="288"/>
<line fill="#000000" stroke="#000000" stroke-width="1" x1="94" x2="94" y1="293" y2="298"/>
<line fill="#000000" stroke="#000000" stroke-width="1" x1="94" x2="94" y1="303" y2="308"/>
<line fill="#000000" stroke="#000000" stroke-width="1" x1="94" x2="94" y1="313" y2="318"/>
<line fill="#000000" stroke="#000000" stroke-width="1" x1="94" x2="94" y1="323" y2="328"/>
<line fill="#000000" stroke="#000000" stroke-width="1" x1="94" x2="94" y1="333" y2="338"/>
<line fill="#000000" stroke="#000000" stroke-width="1" x1="94" x2="94" y1="343" y2="348"/>
<line fill="#000000" stroke="#000000" stroke-width="1" x1="94" x2="94" y1="353" y2="358"/>
<line fill="#000000" stroke="#000000" stroke-width="1" x1="94" x2="94" y1="363" y2="368"/>
<line fill="#000000" stroke="#000000" stroke-width="1" x1="94" x2="94" y1="373" y2="378"/>
<line fill="#000000" stroke="#000000" stroke-width="1" x1="94" x2="94" y1="383" y2="388"/>
<line fill="#000000" stroke="#000000" stroke-width="1" x1="94" x2="94" y1="393" y2="398"/>
<line fill="#000000" stroke="#000000" stroke-width="1" x1="94" x2="94" y1="403" y2="408"/>
<line fill="#000000" stroke="#000000" stroke-width="1" x1="94" x2="94" y1="413" y2="418"/>
<rect fill="#ffffff" height="356" stroke="#ffffff" stroke-width="1" width="20" x="84" y="63"/>
<rect fill="none" height="356" stroke="#000000" stroke-width="1" width="20" x="84" y="63"/>
<rect fill="#ffffff" height="50" stroke="#ffffff" stroke-width="1" width="160" x="14" y="14"/>
<rect fill="none" height="50" stroke="#000000" stroke-width="1" width="160" x="14" y="14"/>
<text font-family="Dialog" font-size="12" x="51" y="27">
/Потребител</text>
<line fill="#000000" stroke="#000000" stroke-width="1" x1="461" x2="461" y1="63" y2="68"/>
<line fill="#000000" stroke="#000000" stroke-width="1" x1="461" x2="461" y1="73" y2="78"/>
<line fill="#000000" stroke="#000000" stroke-width="1" x1="461" x2="461" y1="83" y2="88"/>
<line fill="#000000" stroke="#000000" stroke-width="1" x1="461" x2="461" y1="93" y2="98"/>
<line fill="#000000" stroke="#000000" stroke-width="1" x1="461" x2="461" y1="103" y2="108"/>
<line fill="#000000" stroke="#000000" stroke-width="1" x1="461" x2="461" y1="113" y2="118"/>
<line fill="#000000" stroke="#000000" stroke-width="1" x1="461" x2="461" y1="123" y2="128"/>
<line fill="#000000" stroke="#000000" stroke-width="1" x1="461" x2="461" y1="133" y2="138"/>
<line fill="#000000" stroke="#000000" stroke-width="1" x1="461" x2="461" y1="143" y2="148"/>
<line fill="#000000" stroke="#000000" stroke-width="1" x1="461" x2="461" y1="153" y2="158"/>
<line fill="#000000" stroke="#000000" stroke-width="1" x1="461" x2="461" y1="163" y2="168"/>
<line fill="#000000" stroke="#000000" stroke-width="1" x1="461" x2="461" y1="173" y2="178"/>
<line fill="#000000" stroke="#000000" stroke-width="1" x1="461" x2="461" y1="183" y2="188"/>
<line fill="#000000" stroke="#000000" stroke-width="1" x1="461" x2="461" y1="193" y2="198"/>
<line fill="#000000" stroke="#000000" stroke-width="1" x1="461" x2="461" y1="203" y2="208"/>
<line fill="#000000" stroke="#000000" stroke-width="1" x1="461" x2="461" y1="213" y2="218"/>
<line fill="#000000" stroke="#000000" stroke-width="1" x1="461" x2="461" y1="223" y2="228"/>
<line fill="#000000" stroke="#000000" stroke-width="1" x1="461" x2="461" y1="233" y2="238"/>
<line fill="#000000" stroke="#000000" stroke-width="1" x1="461" x2="461" y1="243" y2="248"/>
<line fill="#000000" stroke="#000000" stroke-width="1" x1="461" x2="461" y1="253" y2="258"/>
<line fill="#000000" stroke="#000000" stroke-width="1" x1="461" x2="461" y1="263" y2="268"/>
<line fill="#000000" stroke="#000000" stroke-width="1" x1="461" x2="461" y1="273" y2="278"/>
<line fill="#000000" stroke="#000000" stroke-width="1" x1="461" x2="461" y1="283" y2="288"/>
<line fill="#000000" stroke="#000000" stroke-width="1" x1="461" x2="461" y1="293" y2="298"/>
<line fill="#000000" stroke="#000000" stroke-width="1" x1="461" x2="461" y1="303" y2="308"/>
<line fill="#000000" stroke="#000000" stroke-width="1" x1="461" x2="461" y1="313" y2="318"/>
<line fill="#000000" stroke="#000000" stroke-width="1" x1="461" x2="461" y1="323" y2="328"/>
<line fill="#000000" stroke="#000000" stroke-width="1" x1="461" x2="461" y1="333" y2="338"/>
<line fill="#000000" stroke="#000000" stroke-width="1" x1="461" x2="461" y1="343" y2="348"/>
<line fill="#000000" stroke="#000000" stroke-width="1" x1="461" x2="461" y1="353" y2="358"/>
<line fill="#000000" stroke="#000000" stroke-width="1" x1="461" x2="461" y1="363" y2="368"/>
<line fill="#000000" stroke="#000000" stroke-width="1" x1="461" x2="461" y1="373" y2="378"/>
<line fill="#000000" stroke="#000000" stroke-width="1" x1="461" x2="461" y1="383" y2="388"/>
<line fill="#000000" stroke="#000000" stroke-width="1" x1="461" x2="461" y1="393" y2="398"/>
<line fill="#000000" stroke="#000000" stroke-width="1" x1="461" x2="461" y1="403" y2="408"/>
<line fill="#000000" stroke="#000000" stroke-width="1" x1="461" x2="461" y1="413" y2="418"/>
<rect fill="#ffffff" height="356" stroke="#ffffff" stroke-width="1" width="20" x="451" y="63"/>
<rect fill="none" height="356" stroke="#000000" stroke-width="1" width="20" x="451" y="63"/>
<rect fill="#ffffff" height="50" stroke="#ffffff" stroke-width="1" width="174" x="374" y="14"/>
<rect fill="none" height="50" stroke="#000000" stroke-width="1" width="174" x="374" y="14"/>
<text font-family="Dialog" font-size="12" x="430" y="27">
/Система</text>
<polyline fill="none" points="104,102 451,102" stroke="#000000" stroke-width="1"/>
<line fill="#000000" stroke="#000000" stroke-width="1" x1="439" x2="451" y1="109" y2="102"/>
<line fill="#000000" stroke="#000000" stroke-width="1" x1="439" x2="451" y1="95" y2="102"/>
<text font-family="Dialog" font-size="12" x="191" y="98">
новоТърсене()</text>
<polyline fill="none" points="104,230 451,230" stroke="#000000" stroke-width="1"/>
<line fill="#000000" stroke="#000000" stroke-width="1" x1="439" x2="451" y1="237" y2="230"/>
<line fill="#000000" stroke="#000000" stroke-width="1" x1="439" x2="451" y1="223" y2="230"/>
<text font-family="Dialog" font-size="12" x="195" y="223">
изборНаФункция (функция, съществува)</text>
<line fill="#000000" stroke="#000000" stroke-width="1" x1="451" x2="446" y1="158" y2="158"/>
<line fill="#000000" stroke="#000000" stroke-width="1" x1="441" x2="436" y1="158" y2="158"/>
<line fill="#000000" stroke="#000000" stroke-width="1" x1="431" x2="426" y1="158" y2="158"/>
<line fill="#000000" stroke="#000000" stroke-width="1" x1="421" x2="416" y1="158" y2="158"/>
<line fill="#000000" stroke="#000000" stroke-width="1" x1="411" x2="406" y1="158" y2="158"/>
<line fill="#000000" stroke="#000000" stroke-width="1" x1="401" x2="396" y1="158" y2="158"/>
<line fill="#000000" stroke="#000000" stroke-width="1" x1="391" x2="386" y1="158" y2="158"/>
<line fill="#000000" stroke="#000000" stroke-width="1" x1="381" x2="376" y1="158" y2="158"/>
<line fill="#000000" stroke="#000000" stroke-width="1" x1="371" x2="366" y1="158" y2="158"/>
<line fill="#000000" stroke="#000000" stroke-width="1" x1="361" x2="356" y1="158" y2="158"/>
<line fill="#000000" stroke="#000000" stroke-width="1" x1="351" x2="346" y1="158" y2="158"/>
<line fill="#000000" stroke="#000000" stroke-width="1" x1="341" x2="336" y1="158" y2="158"/>
<line fill="#000000" stroke="#000000" stroke-width="1" x1="331" x2="326" y1="158" y2="158"/>
<line fill="#000000" stroke="#000000" stroke-width="1" x1="321" x2="316" y1="158" y2="158"/>
<line fill="#000000" stroke="#000000" stroke-width="1" x1="311" x2="306" y1="158" y2="158"/>
<line fill="#000000" stroke="#000000" stroke-width="1" x1="301" x2="296" y1="158" y2="158"/>
<line fill="#000000" stroke="#000000" stroke-width="1" x1="291" x2="286" y1="158" y2="158"/>
<line fill="#000000" stroke="#000000" stroke-width="1" x1="281" x2="276" y1="158" y2="158"/>
<line fill="#000000" stroke="#000000" stroke-width="1" x1="271" x2="266" y1="158" y2="158"/>
<line fill="#000000" stroke="#000000" stroke-width="1" x1="261" x2="256" y1="158" y2="158"/>
<line fill="#000000" stroke="#000000" stroke-width="1" x1="251" x2="246" y1="158" y2="158"/>
<line fill="#000000" stroke="#000000" stroke-width="1" x1="241" x2="236" y1="158" y2="158"/>
<line fill="#000000" stroke="#000000" stroke-width="1" x1="231" x2="226" y1="158" y2="158"/>
<line fill="#000000" stroke="#000000" stroke-width="1" x1="221" x2="216" y1="158" y2="158"/>
<line fill="#000000" stroke="#000000" stroke-width="1" x1="211" x2="206" y1="158" y2="158"/>
<line fill="#000000" stroke="#000000" stroke-width="1" x1="201" x2="196" y1="158" y2="158"/>
<line fill="#000000" stroke="#000000" stroke-width="1" x1="191" x2="186" y1="158" y2="158"/>
<line fill="#000000" stroke="#000000" stroke-width="1" x1="181" x2="176" y1="158" y2="158"/>
<line fill="#000000" stroke="#000000" stroke-width="1" x1="171" x2="166" y1="158" y2="158"/>
<line fill="#000000" stroke="#000000" stroke-width="1" x1="161" x2="156" y1="158" y2="158"/>
<line fill="#000000" stroke="#000000" stroke-width="1" x1="151" x2="146" y1="158" y2="158"/>
<line fill="#000000" stroke="#000000" stroke-width="1" x1="141" x2="136" y1="158" y2="158"/>
<line fill="#000000" stroke="#000000" stroke-width="1" x1="131" x2="126" y1="158" y2="158"/>
<line fill="#000000" stroke="#000000" stroke-width="1" x1="121" x2="116" y1="158" y2="158"/>
<line fill="#000000" stroke="#000000" stroke-width="1" x1="111" x2="106" y1="158" y2="158"/>
<line fill="#000000" stroke="#000000" stroke-width="1" x1="116" x2="104" y1="151" y2="158"/>
<line fill="#000000" stroke="#000000" stroke-width="1" x1="116" x2="104" y1="165" y2="158"/>
<text font-family="Dialog" font-size="12" x="192" y="152">
наличниФункции (списък)</text>
<rect fill="none" height="64" stroke="#000000" stroke-width="1" width="416" x="70" y="198"/>
<line fill="#000000" stroke="#000000" stroke-width="1" x1="451" x2="446" y1="377" y2="377"/>
<line fill="#000000" stroke="#000000" stroke-width="1" x1="441" x2="436" y1="377" y2="377"/>
<line fill="#000000" stroke="#000000" stroke-width="1" x1="431" x2="426" y1="377" y2="377"/>
<line fill="#000000" stroke="#000000" stroke-width="1" x1="421" x2="416" y1="377" y2="377"/>
<line fill="#000000" stroke="#000000" stroke-width="1" x1="411" x2="406" y1="377" y2="377"/>
<line fill="#000000" stroke="#000000" stroke-width="1" x1="401" x2="396" y1="377" y2="377"/>
<line fill="#000000" stroke="#000000" stroke-width="1" x1="391" x2="386" y1="377" y2="377"/>
<line fill="#000000" stroke="#000000" stroke-width="1" x1="381" x2="376" y1="377" y2="377"/>
<line fill="#000000" stroke="#000000" stroke-width="1" x1="371" x2="366" y1="377" y2="377"/>
<line fill="#000000" stroke="#000000" stroke-width="1" x1="361" x2="356" y1="377" y2="377"/>
<line fill="#000000" stroke="#000000" stroke-width="1" x1="351" x2="346" y1="377" y2="377"/>
<line fill="#000000" stroke="#000000" stroke-width="1" x1="341" x2="336" y1="377" y2="377"/>
<line fill="#000000" stroke="#000000" stroke-width="1" x1="331" x2="326" y1="377" y2="377"/>
<line fill="#000000" stroke="#000000" stroke-width="1" x1="321" x2="316" y1="377" y2="377"/>
<line fill="#000000" stroke="#000000" stroke-width="1" x1="311" x2="306" y1="377" y2="377"/>
<line fill="#000000" stroke="#000000" stroke-width="1" x1="301" x2="296" y1="377" y2="377"/>
<line fill="#000000" stroke="#000000" stroke-width="1" x1="291" x2="286" y1="377" y2="377"/>
<line fill="#000000" stroke="#000000" stroke-width="1" x1="281" x2="276" y1="377" y2="377"/>
<line fill="#000000" stroke="#000000" stroke-width="1" x1="271" x2="266" y1="377" y2="377"/>
<line fill="#000000" stroke="#000000" stroke-width="1" x1="261" x2="256" y1="377" y2="377"/>
<line fill="#000000" stroke="#000000" stroke-width="1" x1="251" x2="246" y1="377" y2="377"/>
<line fill="#000000" stroke="#000000" stroke-width="1" x1="241" x2="236" y1="377" y2="377"/>
<line fill="#000000" stroke="#000000" stroke-width="1" x1="231" x2="226" y1="377" y2="377"/>
<line fill="#000000" stroke="#000000" stroke-width="1" x1="221" x2="216" y1="377" y2="377"/>
<line fill="#000000" stroke="#000000" stroke-width="1" x1="211" x2="206" y1="377" y2="377"/>
<line fill="#000000" stroke="#000000" stroke-width="1" x1="201" x2="196" y1="377" y2="377"/>
<line fill="#000000" stroke="#000000" stroke-width="1" x1="191" x2="186" y1="377" y2="377"/>
<line fill="#000000" stroke="#000000" stroke-width="1" x1="181" x2="176" y1="377" y2="377"/>
<line fill="#000000" stroke="#000000" stroke-width="1" x1="171" x2="166" y1="377" y2="377"/>
<line fill="#000000" stroke="#000000" stroke-width="1" x1="161" x2="156" y1="377" y2="377"/>
<line fill="#000000" stroke="#000000" stroke-width="1" x1="151" x2="146" y1="377" y2="377"/>
<line fill="#000000" stroke="#000000" stroke-width="1" x1="141" x2="136" y1="377" y2="377"/>
<line fill="#000000" stroke="#000000" stroke-width="1" x1="131" x2="126" y1="377" y2="377"/>
<line fill="#000000" stroke="#000000" stroke-width="1" x1="121" x2="116" y1="377" y2="377"/>
<line fill="#000000" stroke="#000000" stroke-width="1" x1="111" x2="106" y1="377" y2="377"/>
<line fill="#000000" stroke="#000000" stroke-width="1" x1="116" x2="104" y1="370" y2="377"/>
<line fill="#000000" stroke="#000000" stroke-width="1" x1="116" x2="104" y1="384" y2="377"/>
<text font-family="Dialog" font-size="12" x="192" y="373">
съвместимиУстройва (списък)</text>
<polyline fill="none" points="104,294 451,294" stroke="#000000" stroke-width="1"/>
<line fill="#000000" stroke="#000000" stroke-width="1" x1="439" x2="451" y1="301" y2="294"/>
<line fill="#000000" stroke="#000000" stroke-width="1" x1="439" x2="451" y1="287" y2="294"/>
<text font-family="Dialog" font-size="12" x="193" y="290">
въвежданеНаТекст (текст)</text>
<polyline fill="none" points="104,334 451,334" stroke="#000000" stroke-width="1"/>
<line fill="#000000" stroke="#000000" stroke-width="1" x1="439" x2="451" y1="341" y2="334"/>
<line fill="#000000" stroke="#000000" stroke-width="1" x1="439" x2="451" y1="327" y2="334"/>
<text font-family="Dialog" font-size="12" x="194" y="330">
поискванеНаРезултат()</text>
</svg>
